<mxGraphModel dx="2523" dy="935" grid="1" gridSize="10" guides="1" tooltips="1" connect="1" arrows="1" fold="1" page="1" pageScale="1" pageWidth="850" pageHeight="1100" math="0" shadow="0">
  <root>
    <mxCell id="0" />
    <mxCell id="1" parent="0" />
    <mxCell id="1nn4vVufA6z5W7UZVho0-398" style="edgeStyle=orthogonalEdgeStyle;rounded=0;orthogonalLoop=1;jettySize=auto;html=1;entryX=0.511;entryY=0;entryDx=0;entryDy=0;entryPerimeter=0;" edge="1" parent="1" source="1nn4vVufA6z5W7UZVho0-252" target="1nn4vVufA6z5W7UZVho0-255">
      <mxGeometry relative="1" as="geometry" />
    </mxCell>
    <mxCell id="1nn4vVufA6z5W7UZVho0-432" value="" style="edgeStyle=orthogonalEdgeStyle;rounded=0;orthogonalLoop=1;jettySize=auto;html=1;" edge="1" parent="1" source="1nn4vVufA6z5W7UZVho0-399" target="1nn4vVufA6z5W7UZVho0-426">
      <mxGeometry relative="1" as="geometry" />
    </mxCell>
    <mxCell id="1nn4vVufA6z5W7UZVho0-399" value="&lt;font style=&quot;font-size: 11px ; font-family: &amp;#34;arial&amp;#34; ; color: #000000 ; direction: ltr ; letter-spacing: 0px ; line-height: 120% ; opacity: 1&quot;&gt;Закрытие дескрипторов потоков&lt;br&gt;&lt;/font&gt;" style="verticalAlign=middle;align=center;vsdxID=2;shape=stencil(nZBLDoAgDERP0z3SIyjew0SURgSD+Lu9kMZoXLhwN9O+tukAlrNpJg1SzDH4QW/URgNYgZTkjA4UkwJUgGXng+6DX1zLfmoymdXo17xh5zmRJ6Q42BWCfc2oJfdAr+Yv+AP9Cb7OJ3H/2JG1HNGz/84klThPVCc=);spacingTop=-1;spacingBottom=-1;spacingLeft=-1;spacingRight=-1;labelBackgroundColor=none;rounded=0;html=1;whiteSpace=wrap;" vertex="1" parent="1">
      <mxGeometry x="540" y="400.00333333333333" width="180" height="70" as="geometry" />
    </mxCell>
    <mxCell id="1nn4vVufA6z5W7UZVho0-412" value="" style="edgeStyle=orthogonalEdgeStyle;rounded=0;orthogonalLoop=1;jettySize=auto;html=1;" edge="1" parent="1" source="1nn4vVufA6z5W7UZVho0-405" target="1nn4vVufA6z5W7UZVho0-263">
      <mxGeometry relative="1" as="geometry" />
    </mxCell>
    <mxCell id="1nn4vVufA6z5W7UZVho0-405" value="&lt;font style=&quot;font-size: 11px ; font-family: &amp;#34;arial&amp;#34; ; color: #000000 ; direction: ltr ; letter-spacing: 0px ; line-height: 120% ; opacity: 1&quot;&gt;Принять входящее соединение&lt;br&gt;&lt;/font&gt;" style="verticalAlign=middle;align=center;vsdxID=2;shape=stencil(nZBLDoAgDERP0z3SIyjew0SURgSD+Lu9kMZoXLhwN9O+tukAlrNpJg1SzDH4QW/URgNYgZTkjA4UkwJUgGXng+6DX1zLfmoymdXo17xh5zmRJ6Q42BWCfc2oJfdAr+Yv+AP9Cb7OJ3H/2JG1HNGz/84klThPVCc=);spacingTop=-1;spacingBottom=-1;spacingLeft=-1;spacingRight=-1;labelBackgroundColor=none;rounded=0;html=1;whiteSpace=wrap;" vertex="1" parent="1">
      <mxGeometry x="760" y="350.00333333333333" width="180" height="70" as="geometry" />
    </mxCell>
    <mxCell id="1nn4vVufA6z5W7UZVho0-408" style="edgeStyle=orthogonalEdgeStyle;rounded=0;orthogonalLoop=1;jettySize=auto;html=1;" edge="1" parent="1" source="1nn4vVufA6z5W7UZVho0-263">
      <mxGeometry relative="1" as="geometry">
        <mxPoint x="850" y="220" as="targetPoint" />
        <Array as="points">
          <mxPoint x="850" y="550" />
          <mxPoint x="990" y="550" />
          <mxPoint x="990" y="220" />
        </Array>
      </mxGeometry>
    </mxCell>
    <mxCell id="1nn4vVufA6z5W7UZVho0-413" value="Да" style="text;html=1;align=center;verticalAlign=middle;resizable=0;points=[];autosize=1;" vertex="1" parent="1">
      <mxGeometry x="850" y="310" width="30" height="20" as="geometry" />
    </mxCell>
    <mxCell id="1nn4vVufA6z5W7UZVho0-414" value="Нет" style="text;html=1;align=center;verticalAlign=middle;resizable=0;points=[];autosize=1;" vertex="1" parent="1">
      <mxGeometry x="728" y="250" width="40" height="20" as="geometry" />
    </mxCell>
    <mxCell id="1nn4vVufA6z5W7UZVho0-428" style="edgeStyle=orthogonalEdgeStyle;rounded=0;orthogonalLoop=1;jettySize=auto;html=1;entryX=0.506;entryY=0.029;entryDx=0;entryDy=0;entryPerimeter=0;" edge="1" parent="1" source="1nn4vVufA6z5W7UZVho0-415" target="1nn4vVufA6z5W7UZVho0-425">
      <mxGeometry relative="1" as="geometry" />
    </mxCell>
    <mxCell id="1nn4vVufA6z5W7UZVho0-415" style="vsdxID=7;shape=stencil(UzV2Ls5ILEhVNTIoLinKz04tz0wpyVA1dlE1MsrMy0gtyiwBslSNXVWNndPyi1LTi/JL81Ig/IJEkEoQKze/DGRCBUSfAUiHkUElhGcK4bpBVOZk5iGpNEVVikeloQHZpsK0YlWLz1QgA+HFtMycHEgIIcujBwlQCBKcxq4A);spacingTop=-1;spacingBottom=-1;spacingLeft=-1;spacingRight=-1;labelBackgroundColor=none;rounded=0;html=1;whiteSpace=wrap;" vertex="1" parent="1">
      <mxGeometry x="760" y="910" width="180" height="70" as="geometry" />
    </mxCell>
    <mxCell id="1nn4vVufA6z5W7UZVho0-416" value="&lt;font style=&quot;font-size: 11px ; font-family: &amp;#34;arial&amp;#34; ; color: #000000 ; direction: ltr ; letter-spacing: 0px ; line-height: 120% ; opacity: 1&quot;&gt;Соединение активно&lt;br&gt;&lt;/font&gt;" style="text;vsdxID=7;fillColor=none;gradientColor=none;strokeColor=none;spacingTop=-1;spacingBottom=-1;spacingLeft=-1;spacingRight=-1;labelBackgroundColor=none;rounded=0;html=1;whiteSpace=wrap;verticalAlign=middle;align=center;;html=1;" vertex="1" parent="1nn4vVufA6z5W7UZVho0-415">
      <mxGeometry x="20.07561151079137" y="8.75" width="139.85611510791367" height="52.5" as="geometry" />
    </mxCell>
    <mxCell id="1nn4vVufA6z5W7UZVho0-494" value="24" style="text;html=1;align=center;verticalAlign=middle;resizable=0;points=[];autosize=1;" vertex="1" parent="1nn4vVufA6z5W7UZVho0-415">
      <mxGeometry x="20.079999999999927" y="-10" width="30" height="20" as="geometry" />
    </mxCell>
    <mxCell id="1nn4vVufA6z5W7UZVho0-422" value="" style="edgeStyle=orthogonalEdgeStyle;rounded=0;orthogonalLoop=1;jettySize=auto;html=1;" edge="1" parent="1" source="1nn4vVufA6z5W7UZVho0-418" target="1nn4vVufA6z5W7UZVho0-419">
      <mxGeometry relative="1" as="geometry" />
    </mxCell>
    <mxCell id="1nn4vVufA6z5W7UZVho0-418" value="&lt;font style=&quot;direction: ltr ; line-height: 120% ; opacity: 1&quot;&gt;&lt;font face=&quot;arial&quot;&gt;&lt;span style=&quot;font-size: 11px&quot;&gt;Получить данные от клиента&lt;/span&gt;&lt;/font&gt;&lt;br&gt;&lt;/font&gt;" style="verticalAlign=middle;align=center;vsdxID=2;shape=stencil(nZBLDoAgDERP0z3SIyjew0SURgSD+Lu9kMZoXLhwN9O+tukAlrNpJg1SzDH4QW/URgNYgZTkjA4UkwJUgGXng+6DX1zLfmoymdXo17xh5zmRJ6Q42BWCfc2oJfdAr+Yv+AP9Cb7OJ3H/2JG1HNGz/84klThPVCc=);spacingTop=-1;spacingBottom=-1;spacingLeft=-1;spacingRight=-1;labelBackgroundColor=none;rounded=0;html=1;whiteSpace=wrap;" vertex="1" parent="1">
      <mxGeometry x="760" y="1010.0033333333333" width="180" height="70" as="geometry" />
    </mxCell>
    <mxCell id="1nn4vVufA6z5W7UZVho0-423" value="" style="edgeStyle=orthogonalEdgeStyle;rounded=0;orthogonalLoop=1;jettySize=auto;html=1;" edge="1" parent="1" source="1nn4vVufA6z5W7UZVho0-419" target="1nn4vVufA6z5W7UZVho0-292">
      <mxGeometry relative="1" as="geometry" />
    </mxCell>
    <mxCell id="1nn4vVufA6z5W7UZVho0-419" value="&lt;font style=&quot;direction: ltr ; line-height: 120% ; opacity: 1&quot;&gt;&lt;font face=&quot;arial&quot;&gt;&lt;span style=&quot;font-size: 11px&quot;&gt;Добавить данные в поток вывода&lt;/span&gt;&lt;/font&gt;&lt;br&gt;&lt;/font&gt;" style="verticalAlign=middle;align=center;vsdxID=2;shape=stencil(nZBLDoAgDERP0z3SIyjew0SURgSD+Lu9kMZoXLhwN9O+tukAlrNpJg1SzDH4QW/URgNYgZTkjA4UkwJUgGXng+6DX1zLfmoymdXo17xh5zmRJ6Q42BWCfc2oJfdAr+Yv+AP9Cb7OJ3H/2JG1HNGz/84klThPVCc=);spacingTop=-1;spacingBottom=-1;spacingLeft=-1;spacingRight=-1;labelBackgroundColor=none;rounded=0;html=1;whiteSpace=wrap;" vertex="1" parent="1">
      <mxGeometry x="760" y="1130.0033333333333" width="180" height="70" as="geometry" />
    </mxCell>
    <mxCell id="1nn4vVufA6z5W7UZVho0-421" value="" style="edgeStyle=orthogonalEdgeStyle;rounded=0;orthogonalLoop=1;jettySize=auto;html=1;" edge="1" parent="1" target="1nn4vVufA6z5W7UZVho0-418">
      <mxGeometry relative="1" as="geometry">
        <mxPoint x="850" y="980" as="sourcePoint" />
      </mxGeometry>
    </mxCell>
    <mxCell id="1nn4vVufA6z5W7UZVho0-424" style="edgeStyle=orthogonalEdgeStyle;rounded=0;orthogonalLoop=1;jettySize=auto;html=1;" edge="1" parent="1" source="1nn4vVufA6z5W7UZVho0-292">
      <mxGeometry relative="1" as="geometry">
        <mxPoint x="850" y="890" as="targetPoint" />
        <Array as="points">
          <mxPoint x="850" y="1320" />
          <mxPoint x="990" y="1320" />
          <mxPoint x="990" y="890" />
        </Array>
      </mxGeometry>
    </mxCell>
    <mxCell id="1nn4vVufA6z5W7UZVho0-427" value="" style="edgeStyle=orthogonalEdgeStyle;rounded=0;orthogonalLoop=1;jettySize=auto;html=1;" edge="1" parent="1" source="1nn4vVufA6z5W7UZVho0-425" target="1nn4vVufA6z5W7UZVho0-264">
      <mxGeometry relative="1" as="geometry" />
    </mxCell>
    <mxCell id="1nn4vVufA6z5W7UZVho0-425" value="&lt;font style=&quot;direction: ltr ; line-height: 120% ; opacity: 1&quot;&gt;&lt;font face=&quot;arial&quot;&gt;&lt;span style=&quot;font-size: 11px&quot;&gt;Закрыть сокет клиента&lt;/span&gt;&lt;/font&gt;&lt;br&gt;&lt;/font&gt;" style="verticalAlign=middle;align=center;vsdxID=2;shape=stencil(nZBLDoAgDERP0z3SIyjew0SURgSD+Lu9kMZoXLhwN9O+tukAlrNpJg1SzDH4QW/URgNYgZTkjA4UkwJUgGXng+6DX1zLfmoymdXo17xh5zmRJ6Q42BWCfc2oJfdAr+Yv+AP9Cb7OJ3H/2JG1HNGz/84klThPVCc=);spacingTop=-1;spacingBottom=-1;spacingLeft=-1;spacingRight=-1;labelBackgroundColor=none;rounded=0;html=1;whiteSpace=wrap;" vertex="1" parent="1">
      <mxGeometry x="550" y="1010.0033333333333" width="180" height="70" as="geometry" />
    </mxCell>
    <mxCell id="1nn4vVufA6z5W7UZVho0-426" value="&lt;font style=&quot;font-size: 11px ; font-family: &amp;#34;arial&amp;#34; ; color: #000000 ; direction: ltr ; letter-spacing: 0px ; line-height: 120% ; opacity: 1&quot;&gt;Конец&lt;br&gt;Менеджер соединений&lt;br&gt;&lt;/font&gt;" style="verticalAlign=middle;align=center;vsdxID=1;shape=stencil(tVLREoIgEPwaHnEIsvHd7D+YBGUicA5K+/sgbNLMXpre9m737mZhEStdyzuBKHEe7En0qvYtYntEqTKtAOUDQqxCrJQWRAP2YupUdzwqIzrba9wwpLlNnrEiTlFyGzuEPOpDkmtlJvJim+3oNzmHY+BguR1GfZ7k6wufPOaDchis515ZM+M0h0bgcApLzZsZ5XohukX7o5el9Z+crL/kX7wE8PpTqbROkZjy7xkIrZQfVt0B);spacingTop=-1;spacingBottom=-1;spacingLeft=-1;spacingRight=-1;labelBackgroundColor=none;rounded=0;html=1;whiteSpace=wrap;" vertex="1" parent="1">
      <mxGeometry x="540" y="510" width="180" height="70" as="geometry" />
    </mxCell>
    <mxCell id="1nn4vVufA6z5W7UZVho0-429" value="Да" style="text;html=1;align=center;verticalAlign=middle;resizable=0;points=[];autosize=1;" vertex="1" parent="1">
      <mxGeometry x="850" y="980" width="30" height="20" as="geometry" />
    </mxCell>
    <mxCell id="1nn4vVufA6z5W7UZVho0-430" value="Нет" style="text;html=1;align=center;verticalAlign=middle;resizable=0;points=[];autosize=1;" vertex="1" parent="1">
      <mxGeometry x="720" y="920" width="40" height="20" as="geometry" />
    </mxCell>
    <mxCell id="1nn4vVufA6z5W7UZVho0-443" value="" style="edgeStyle=orthogonalEdgeStyle;rounded=0;orthogonalLoop=1;jettySize=auto;html=1;" edge="1" parent="1" source="1nn4vVufA6z5W7UZVho0-433" target="1nn4vVufA6z5W7UZVho0-434">
      <mxGeometry relative="1" as="geometry" />
    </mxCell>
    <mxCell id="1nn4vVufA6z5W7UZVho0-433" value="&lt;font style=&quot;font-size: 11px ; font-family: &amp;#34;arial&amp;#34; ; color: #000000 ; direction: ltr ; letter-spacing: 0px ; line-height: 120% ; opacity: 1&quot;&gt;Начало&lt;br&gt;Отправка данных на сервер&lt;br&gt;&lt;/font&gt;" style="verticalAlign=middle;align=center;vsdxID=1;shape=stencil(tVLREoIgEPwaHnEIsvHd7D+YBGUicA5K+/sgbNLMXpre9m737mZhEStdyzuBKHEe7En0qvYtYntEqTKtAOUDQqxCrJQWRAP2YupUdzwqIzrba9wwpLlNnrEiTlFyGzuEPOpDkmtlJvJim+3oNzmHY+BguR1GfZ7k6wufPOaDchis515ZM+M0h0bgcApLzZsZ5XohukX7o5el9Z+crL/kX7wE8PpTqbROkZjy7xkIrZQfVt0B);spacingTop=-1;spacingBottom=-1;spacingLeft=-1;spacingRight=-1;labelBackgroundColor=none;rounded=0;html=1;whiteSpace=wrap;" vertex="1" parent="1">
      <mxGeometry x="-380" y="80" width="180" height="70" as="geometry" />
    </mxCell>
    <mxCell id="1nn4vVufA6z5W7UZVho0-434" style="vsdxID=7;shape=stencil(UzV2Ls5ILEhVNTIoLinKz04tz0wpyVA1dlE1MsrMy0gtyiwBslSNXVWNndPyi1LTi/JL81Ig/IJEkEoQKze/DGRCBUSfAUiHkUElhGcK4bpBVOZk5iGpNEVVikeloQHZpsK0YlWLz1QgA+HFtMycHEgIIcujBwlQCBKcxq4A);spacingTop=-1;spacingBottom=-1;spacingLeft=-1;spacingRight=-1;labelBackgroundColor=none;rounded=0;html=1;whiteSpace=wrap;" vertex="1" parent="1">
      <mxGeometry x="-380" y="180" width="180" height="70" as="geometry" />
    </mxCell>
    <mxCell id="1nn4vVufA6z5W7UZVho0-444" value="" style="edgeStyle=orthogonalEdgeStyle;rounded=0;orthogonalLoop=1;jettySize=auto;html=1;" edge="1" parent="1nn4vVufA6z5W7UZVho0-434" target="1nn4vVufA6z5W7UZVho0-308">
      <mxGeometry relative="1" as="geometry">
        <mxPoint x="90" y="70" as="sourcePoint" />
      </mxGeometry>
    </mxCell>
    <mxCell id="1nn4vVufA6z5W7UZVho0-435" value="&lt;font style=&quot;font-size: 11px ; font-family: &amp;#34;arial&amp;#34; ; color: #000000 ; direction: ltr ; letter-spacing: 0px ; line-height: 120% ; opacity: 1&quot;&gt;Соединение активно&lt;br&gt;&lt;/font&gt;" style="text;vsdxID=7;fillColor=none;gradientColor=none;strokeColor=none;spacingTop=-1;spacingBottom=-1;spacingLeft=-1;spacingRight=-1;labelBackgroundColor=none;rounded=0;html=1;whiteSpace=wrap;verticalAlign=middle;align=center;;html=1;" vertex="1" parent="1nn4vVufA6z5W7UZVho0-434">
      <mxGeometry x="20.07561151079137" y="8.75" width="139.85611510791367" height="52.5" as="geometry" />
    </mxCell>
    <mxCell id="1nn4vVufA6z5W7UZVho0-450" style="edgeStyle=orthogonalEdgeStyle;rounded=0;orthogonalLoop=1;jettySize=auto;html=1;" edge="1" parent="1" source="1nn4vVufA6z5W7UZVho0-437">
      <mxGeometry relative="1" as="geometry">
        <mxPoint x="-480" y="415" as="targetPoint" />
      </mxGeometry>
    </mxCell>
    <mxCell id="1nn4vVufA6z5W7UZVho0-437" style="vsdxID=7;shape=stencil(UzV2Ls5ILEhVNTIoLinKz04tz0wpyVA1dlE1MsrMy0gtyiwBslSNXVWNndPyi1LTi/JL81Ig/IJEkEoQKze/DGRCBUSfAUiHkUElhGcK4bpBVOZk5iGpNEVVikeloQHZpsK0YlWLz1QgA+HFtMycHEgIIcujBwlQCBKcxq4A);spacingTop=-1;spacingBottom=-1;spacingLeft=-1;spacingRight=-1;labelBackgroundColor=none;rounded=0;html=1;whiteSpace=wrap;" vertex="1" parent="1">
      <mxGeometry x="-380" y="380" width="180" height="70" as="geometry" />
    </mxCell>
    <mxCell id="1nn4vVufA6z5W7UZVho0-438" value="&lt;font style=&quot;font-size: 11px ; font-family: &amp;#34;arial&amp;#34; ; color: #000000 ; direction: ltr ; letter-spacing: 0px ; line-height: 120% ; opacity: 1&quot;&gt;Отправка произошла успешно&lt;br&gt;&lt;/font&gt;" style="text;vsdxID=7;fillColor=none;gradientColor=none;strokeColor=none;spacingTop=-1;spacingBottom=-1;spacingLeft=-1;spacingRight=-1;labelBackgroundColor=none;rounded=0;html=1;whiteSpace=wrap;verticalAlign=middle;align=center;;html=1;" vertex="1" parent="1nn4vVufA6z5W7UZVho0-437">
      <mxGeometry x="20.07561151079137" y="8.75" width="139.85611510791367" height="52.5" as="geometry" />
    </mxCell>
    <mxCell id="1nn4vVufA6z5W7UZVho0-447" value="" style="edgeStyle=orthogonalEdgeStyle;rounded=0;orthogonalLoop=1;jettySize=auto;html=1;" edge="1" parent="1" source="1nn4vVufA6z5W7UZVho0-439" target="1nn4vVufA6z5W7UZVho0-441">
      <mxGeometry relative="1" as="geometry" />
    </mxCell>
    <mxCell id="1nn4vVufA6z5W7UZVho0-439" value="&lt;font style=&quot;direction: ltr ; line-height: 120% ; opacity: 1&quot;&gt;&lt;font face=&quot;arial&quot;&gt;&lt;span style=&quot;font-size: 11px&quot;&gt;Закрыть сокет сервера&lt;/span&gt;&lt;/font&gt;&lt;br&gt;&lt;/font&gt;" style="verticalAlign=middle;align=center;vsdxID=2;shape=stencil(nZBLDoAgDERP0z3SIyjew0SURgSD+Lu9kMZoXLhwN9O+tukAlrNpJg1SzDH4QW/URgNYgZTkjA4UkwJUgGXng+6DX1zLfmoymdXo17xh5zmRJ6Q42BWCfc2oJfdAr+Yv+AP9Cb7OJ3H/2JG1HNGz/84klThPVCc=);spacingTop=-1;spacingBottom=-1;spacingLeft=-1;spacingRight=-1;labelBackgroundColor=none;rounded=0;html=1;whiteSpace=wrap;" vertex="1" parent="1">
      <mxGeometry x="-380" y="480.00333333333333" width="180" height="70" as="geometry" />
    </mxCell>
    <mxCell id="1nn4vVufA6z5W7UZVho0-448" value="" style="edgeStyle=orthogonalEdgeStyle;rounded=0;orthogonalLoop=1;jettySize=auto;html=1;" edge="1" parent="1" source="1nn4vVufA6z5W7UZVho0-441" target="1nn4vVufA6z5W7UZVho0-442">
      <mxGeometry relative="1" as="geometry" />
    </mxCell>
    <mxCell id="1nn4vVufA6z5W7UZVho0-441" value="&lt;font style=&quot;font-size: 11px&quot;&gt;Запустить процедуру восстановления соединения в новом потоке&lt;/font&gt;" style="shape=process;whiteSpace=wrap;html=1;backgroundOutline=1;" vertex="1" parent="1">
      <mxGeometry x="-380" y="580" width="180" height="70" as="geometry" />
    </mxCell>
    <mxCell id="1nn4vVufA6z5W7UZVho0-442" value="&lt;font style=&quot;font-size: 11px ; font-family: &amp;#34;arial&amp;#34; ; color: #000000 ; direction: ltr ; letter-spacing: 0px ; line-height: 120% ; opacity: 1&quot;&gt;Конец&lt;br&gt;Отправка данных на сервер&lt;br&gt;&lt;/font&gt;" style="verticalAlign=middle;align=center;vsdxID=1;shape=stencil(tVLREoIgEPwaHnEIsvHd7D+YBGUicA5K+/sgbNLMXpre9m737mZhEStdyzuBKHEe7En0qvYtYntEqTKtAOUDQqxCrJQWRAP2YupUdzwqIzrba9wwpLlNnrEiTlFyGzuEPOpDkmtlJvJim+3oNzmHY+BguR1GfZ7k6wufPOaDchis515ZM+M0h0bgcApLzZsZ5XohukX7o5el9Z+crL/kX7wE8PpTqbROkZjy7xkIrZQfVt0B);spacingTop=-1;spacingBottom=-1;spacingLeft=-1;spacingRight=-1;labelBackgroundColor=none;rounded=0;html=1;whiteSpace=wrap;" vertex="1" parent="1">
      <mxGeometry x="-380" y="690" width="180" height="70" as="geometry" />
    </mxCell>
    <mxCell id="1nn4vVufA6z5W7UZVho0-446" value="" style="edgeStyle=orthogonalEdgeStyle;rounded=0;orthogonalLoop=1;jettySize=auto;html=1;" edge="1" parent="1" target="1nn4vVufA6z5W7UZVho0-439">
      <mxGeometry relative="1" as="geometry">
        <mxPoint x="-290" y="450" as="sourcePoint" />
      </mxGeometry>
    </mxCell>
    <mxCell id="1nn4vVufA6z5W7UZVho0-449" style="edgeStyle=orthogonalEdgeStyle;rounded=0;orthogonalLoop=1;jettySize=auto;html=1;" edge="1" parent="1">
      <mxGeometry relative="1" as="geometry">
        <mxPoint x="-289.99633093525154" y="670" as="targetPoint" />
        <mxPoint x="-380" y="215" as="sourcePoint" />
        <Array as="points">
          <mxPoint x="-480" y="215" />
          <mxPoint x="-480" y="670" />
        </Array>
      </mxGeometry>
    </mxCell>
    <mxCell id="1nn4vVufA6z5W7UZVho0-451" value="Да" style="text;html=1;align=center;verticalAlign=middle;resizable=0;points=[];autosize=1;" vertex="1" parent="1">
      <mxGeometry x="-290" y="250" width="30" height="20" as="geometry" />
    </mxCell>
    <mxCell id="1nn4vVufA6z5W7UZVho0-452" value="Нет" style="text;html=1;align=center;verticalAlign=middle;resizable=0;points=[];autosize=1;" vertex="1" parent="1">
      <mxGeometry x="-420" y="190" width="40" height="20" as="geometry" />
    </mxCell>
    <mxCell id="1nn4vVufA6z5W7UZVho0-453" value="Да" style="text;html=1;align=center;verticalAlign=middle;resizable=0;points=[];autosize=1;" vertex="1" parent="1">
      <mxGeometry x="-410" y="390" width="30" height="20" as="geometry" />
    </mxCell>
    <mxCell id="1nn4vVufA6z5W7UZVho0-454" value="Нет" style="text;html=1;align=center;verticalAlign=middle;resizable=0;points=[];autosize=1;" vertex="1" parent="1">
      <mxGeometry x="-290" y="450" width="40" height="20" as="geometry" />
    </mxCell>
    <mxCell id="1nn4vVufA6z5W7UZVho0-460" value="" style="edgeStyle=orthogonalEdgeStyle;rounded=0;orthogonalLoop=1;jettySize=auto;html=1;" edge="1" parent="1" source="1nn4vVufA6z5W7UZVho0-455" target="1nn4vVufA6z5W7UZVho0-457">
      <mxGeometry relative="1" as="geometry" />
    </mxCell>
    <mxCell id="1nn4vVufA6z5W7UZVho0-455" value="&lt;font style=&quot;font-size: 11px ; font-family: &amp;#34;arial&amp;#34; ; color: #000000 ; direction: ltr ; letter-spacing: 0px ; line-height: 120% ; opacity: 1&quot;&gt;Начало&lt;br&gt;Восстановление соединения с сервером&lt;br&gt;&lt;/font&gt;" style="verticalAlign=middle;align=center;vsdxID=1;shape=stencil(tVLREoIgEPwaHnEIsvHd7D+YBGUicA5K+/sgbNLMXpre9m737mZhEStdyzuBKHEe7En0qvYtYntEqTKtAOUDQqxCrJQWRAP2YupUdzwqIzrba9wwpLlNnrEiTlFyGzuEPOpDkmtlJvJim+3oNzmHY+BguR1GfZ7k6wufPOaDchis515ZM+M0h0bgcApLzZsZ5XohukX7o5el9Z+crL/kX7wE8PpTqbROkZjy7xkIrZQfVt0B);spacingTop=-1;spacingBottom=-1;spacingLeft=-1;spacingRight=-1;labelBackgroundColor=none;rounded=0;html=1;whiteSpace=wrap;" vertex="1" parent="1">
      <mxGeometry x="-480" y="930" width="180" height="70" as="geometry" />
    </mxCell>
    <mxCell id="1nn4vVufA6z5W7UZVho0-461" value="" style="edgeStyle=orthogonalEdgeStyle;rounded=0;orthogonalLoop=1;jettySize=auto;html=1;" edge="1" parent="1" source="1nn4vVufA6z5W7UZVho0-457" target="1nn4vVufA6z5W7UZVho0-458">
      <mxGeometry relative="1" as="geometry" />
    </mxCell>
    <mxCell id="1nn4vVufA6z5W7UZVho0-457" value="&lt;font style=&quot;direction: ltr ; line-height: 120% ; opacity: 1&quot;&gt;&lt;font face=&quot;arial&quot;&gt;&lt;span style=&quot;font-size: 11px&quot;&gt;Запрос подключения к серверу&lt;/span&gt;&lt;/font&gt;&lt;br&gt;&lt;/font&gt;" style="verticalAlign=middle;align=center;vsdxID=2;shape=stencil(nZBLDoAgDERP0z3SIyjew0SURgSD+Lu9kMZoXLhwN9O+tukAlrNpJg1SzDH4QW/URgNYgZTkjA4UkwJUgGXng+6DX1zLfmoymdXo17xh5zmRJ6Q42BWCfc2oJfdAr+Yv+AP9Cb7OJ3H/2JG1HNGz/84klThPVCc=);spacingTop=-1;spacingBottom=-1;spacingLeft=-1;spacingRight=-1;labelBackgroundColor=none;rounded=0;html=1;whiteSpace=wrap;" vertex="1" parent="1">
      <mxGeometry x="-480" y="1040.0033333333333" width="180" height="70" as="geometry" />
    </mxCell>
    <mxCell id="1nn4vVufA6z5W7UZVho0-464" style="edgeStyle=orthogonalEdgeStyle;rounded=0;orthogonalLoop=1;jettySize=auto;html=1;" edge="1" parent="1" source="1nn4vVufA6z5W7UZVho0-458" target="1nn4vVufA6z5W7UZVho0-463">
      <mxGeometry relative="1" as="geometry" />
    </mxCell>
    <mxCell id="1nn4vVufA6z5W7UZVho0-458" style="vsdxID=7;shape=stencil(UzV2Ls5ILEhVNTIoLinKz04tz0wpyVA1dlE1MsrMy0gtyiwBslSNXVWNndPyi1LTi/JL81Ig/IJEkEoQKze/DGRCBUSfAUiHkUElhGcK4bpBVOZk5iGpNEVVikeloQHZpsK0YlWLz1QgA+HFtMycHEgIIcujBwlQCBKcxq4A);spacingTop=-1;spacingBottom=-1;spacingLeft=-1;spacingRight=-1;labelBackgroundColor=none;rounded=0;html=1;whiteSpace=wrap;" vertex="1" parent="1">
      <mxGeometry x="-480" y="1140" width="180" height="70" as="geometry" />
    </mxCell>
    <mxCell id="1nn4vVufA6z5W7UZVho0-459" value="&lt;font style=&quot;font-size: 11px ; font-family: &amp;#34;arial&amp;#34; ; color: #000000 ; direction: ltr ; letter-spacing: 0px ; line-height: 120% ; opacity: 1&quot;&gt;Соединение установлено&lt;br&gt;&lt;/font&gt;" style="text;vsdxID=7;fillColor=none;gradientColor=none;strokeColor=none;spacingTop=-1;spacingBottom=-1;spacingLeft=-1;spacingRight=-1;labelBackgroundColor=none;rounded=0;html=1;whiteSpace=wrap;verticalAlign=middle;align=center;;html=1;" vertex="1" parent="1nn4vVufA6z5W7UZVho0-458">
      <mxGeometry x="20.07561151079137" y="8.75" width="139.85611510791367" height="52.5" as="geometry" />
    </mxCell>
    <mxCell id="1nn4vVufA6z5W7UZVho0-462" value="&lt;font style=&quot;font-size: 11px ; font-family: &amp;#34;arial&amp;#34; ; color: #000000 ; direction: ltr ; letter-spacing: 0px ; line-height: 120% ; opacity: 1&quot;&gt;Конец&lt;br&gt;Восстановление соединения с сервером&lt;br&gt;&lt;/font&gt;" style="verticalAlign=middle;align=center;vsdxID=1;shape=stencil(tVLREoIgEPwaHnEIsvHd7D+YBGUicA5K+/sgbNLMXpre9m737mZhEStdyzuBKHEe7En0qvYtYntEqTKtAOUDQqxCrJQWRAP2YupUdzwqIzrba9wwpLlNnrEiTlFyGzuEPOpDkmtlJvJim+3oNzmHY+BguR1GfZ7k6wufPOaDchis515ZM+M0h0bgcApLzZsZ5XohukX7o5el9Z+crL/kX7wE8PpTqbROkZjy7xkIrZQfVt0B);spacingTop=-1;spacingBottom=-1;spacingLeft=-1;spacingRight=-1;labelBackgroundColor=none;rounded=0;html=1;whiteSpace=wrap;" vertex="1" parent="1">
      <mxGeometry x="-480" y="1350" width="180" height="70" as="geometry" />
    </mxCell>
    <mxCell id="1nn4vVufA6z5W7UZVho0-465" style="edgeStyle=orthogonalEdgeStyle;rounded=0;orthogonalLoop=1;jettySize=auto;html=1;" edge="1" parent="1" source="1nn4vVufA6z5W7UZVho0-463">
      <mxGeometry relative="1" as="geometry">
        <mxPoint x="-390" y="1010" as="targetPoint" />
        <Array as="points">
          <mxPoint x="-200" y="1300" />
          <mxPoint x="-80" y="1300" />
          <mxPoint x="-80" y="1010" />
        </Array>
      </mxGeometry>
    </mxCell>
    <mxCell id="1nn4vVufA6z5W7UZVho0-463" value="&lt;font style=&quot;direction: ltr ; line-height: 120% ; opacity: 1&quot;&gt;&lt;font face=&quot;arial&quot;&gt;&lt;span style=&quot;font-size: 11px&quot;&gt;Ожидание перед повторной попыткой&lt;/span&gt;&lt;/font&gt;&lt;br&gt;&lt;/font&gt;" style="verticalAlign=middle;align=center;vsdxID=2;shape=stencil(nZBLDoAgDERP0z3SIyjew0SURgSD+Lu9kMZoXLhwN9O+tukAlrNpJg1SzDH4QW/URgNYgZTkjA4UkwJUgGXng+6DX1zLfmoymdXo17xh5zmRJ6Q42BWCfc2oJfdAr+Yv+AP9Cb7OJ3H/2JG1HNGz/84klThPVCc=);spacingTop=-1;spacingBottom=-1;spacingLeft=-1;spacingRight=-1;labelBackgroundColor=none;rounded=0;html=1;whiteSpace=wrap;" vertex="1" parent="1">
      <mxGeometry x="-290" y="1215.0033333333333" width="180" height="70" as="geometry" />
    </mxCell>
    <mxCell id="1nn4vVufA6z5W7UZVho0-469" value="" style="edgeStyle=orthogonalEdgeStyle;rounded=0;orthogonalLoop=1;jettySize=auto;html=1;" edge="1" parent="1" source="1nn4vVufA6z5W7UZVho0-467" target="1nn4vVufA6z5W7UZVho0-462">
      <mxGeometry relative="1" as="geometry" />
    </mxCell>
    <mxCell id="1nn4vVufA6z5W7UZVho0-467" value="&lt;font style=&quot;direction: ltr ; line-height: 120% ; opacity: 1&quot;&gt;&lt;font face=&quot;arial&quot;&gt;&lt;span style=&quot;font-size: 11px&quot;&gt;Закрытие дескриптора потока&lt;/span&gt;&lt;/font&gt;&lt;br&gt;&lt;/font&gt;" style="verticalAlign=middle;align=center;vsdxID=2;shape=stencil(nZBLDoAgDERP0z3SIyjew0SURgSD+Lu9kMZoXLhwN9O+tukAlrNpJg1SzDH4QW/URgNYgZTkjA4UkwJUgGXng+6DX1zLfmoymdXo17xh5zmRJ6Q42BWCfc2oJfdAr+Yv+AP9Cb7OJ3H/2JG1HNGz/84klThPVCc=);spacingTop=-1;spacingBottom=-1;spacingLeft=-1;spacingRight=-1;labelBackgroundColor=none;rounded=0;html=1;whiteSpace=wrap;" vertex="1" parent="1">
      <mxGeometry x="-480" y="1240.0033333333333" width="180" height="70" as="geometry" />
    </mxCell>
    <mxCell id="1nn4vVufA6z5W7UZVho0-468" value="" style="edgeStyle=orthogonalEdgeStyle;rounded=0;orthogonalLoop=1;jettySize=auto;html=1;" edge="1" parent="1" target="1nn4vVufA6z5W7UZVho0-467">
      <mxGeometry relative="1" as="geometry">
        <mxPoint x="-390" y="1210" as="sourcePoint" />
      </mxGeometry>
    </mxCell>
    <mxCell id="1nn4vVufA6z5W7UZVho0-470" value="1" style="text;html=1;align=center;verticalAlign=middle;resizable=0;points=[];autosize=1;" vertex="1" parent="1">
      <mxGeometry x="-370" y="50" width="20" height="20" as="geometry" />
    </mxCell>
    <mxCell id="1nn4vVufA6z5W7UZVho0-471" value="2" style="text;html=1;align=center;verticalAlign=middle;resizable=0;points=[];autosize=1;" vertex="1" parent="1">
      <mxGeometry x="-370" y="160" width="20" height="20" as="geometry" />
    </mxCell>
    <mxCell id="1nn4vVufA6z5W7UZVho0-472" value="3" style="text;html=1;align=center;verticalAlign=middle;resizable=0;points=[];autosize=1;" vertex="1" parent="1">
      <mxGeometry x="-370" y="240" width="20" height="20" as="geometry" />
    </mxCell>
    <mxCell id="1nn4vVufA6z5W7UZVho0-473" value="4" style="text;html=1;align=center;verticalAlign=middle;resizable=0;points=[];autosize=1;" vertex="1" parent="1">
      <mxGeometry x="-380" y="360" width="20" height="20" as="geometry" />
    </mxCell>
    <mxCell id="1nn4vVufA6z5W7UZVho0-474" value="5" style="text;html=1;align=center;verticalAlign=middle;resizable=0;points=[];autosize=1;" vertex="1" parent="1">
      <mxGeometry x="-380" y="440" width="20" height="20" as="geometry" />
    </mxCell>
    <mxCell id="1nn4vVufA6z5W7UZVho0-475" value="6" style="text;html=1;align=center;verticalAlign=middle;resizable=0;points=[];autosize=1;" vertex="1" parent="1">
      <mxGeometry x="-380" y="560" width="20" height="20" as="geometry" />
    </mxCell>
    <mxCell id="1nn4vVufA6z5W7UZVho0-477" value="7" style="text;html=1;align=center;verticalAlign=middle;resizable=0;points=[];autosize=1;" vertex="1" parent="1">
      <mxGeometry x="-380" y="670" width="20" height="20" as="geometry" />
    </mxCell>
    <mxCell id="1nn4vVufA6z5W7UZVho0-478" value="8" style="text;html=1;align=center;verticalAlign=middle;resizable=0;points=[];autosize=1;" vertex="1" parent="1">
      <mxGeometry x="540" y="280" width="20" height="20" as="geometry" />
    </mxCell>
    <mxCell id="1nn4vVufA6z5W7UZVho0-479" value="9" style="text;html=1;align=center;verticalAlign=middle;resizable=0;points=[];autosize=1;" vertex="1" parent="1">
      <mxGeometry x="540" y="380" width="20" height="20" as="geometry" />
    </mxCell>
    <mxCell id="1nn4vVufA6z5W7UZVho0-480" value="10" style="text;html=1;align=center;verticalAlign=middle;resizable=0;points=[];autosize=1;" vertex="1" parent="1">
      <mxGeometry x="550" y="490" width="30" height="20" as="geometry" />
    </mxCell>
    <mxCell id="1nn4vVufA6z5W7UZVho0-481" value="11" style="text;html=1;align=center;verticalAlign=middle;resizable=0;points=[];autosize=1;" vertex="1" parent="1">
      <mxGeometry x="770" y="120" width="30" height="20" as="geometry" />
    </mxCell>
    <mxCell id="1nn4vVufA6z5W7UZVho0-483" value="13" style="text;html=1;align=center;verticalAlign=middle;resizable=0;points=[];autosize=1;" vertex="1" parent="1">
      <mxGeometry x="770" y="330" width="30" height="20" as="geometry" />
    </mxCell>
    <mxCell id="1nn4vVufA6z5W7UZVho0-484" value="14" style="text;html=1;align=center;verticalAlign=middle;resizable=0;points=[];autosize=1;" vertex="1" parent="1">
      <mxGeometry x="770" y="440" width="30" height="20" as="geometry" />
    </mxCell>
    <mxCell id="1nn4vVufA6z5W7UZVho0-485" value="15" style="text;html=1;align=center;verticalAlign=middle;resizable=0;points=[];autosize=1;" vertex="1" parent="1">
      <mxGeometry x="-460" y="910" width="30" height="20" as="geometry" />
    </mxCell>
    <mxCell id="1nn4vVufA6z5W7UZVho0-486" value="16" style="text;html=1;align=center;verticalAlign=middle;resizable=0;points=[];autosize=1;" vertex="1" parent="1">
      <mxGeometry x="-460" y="1020" width="30" height="20" as="geometry" />
    </mxCell>
    <mxCell id="1nn4vVufA6z5W7UZVho0-487" value="17" style="text;html=1;align=center;verticalAlign=middle;resizable=0;points=[];autosize=1;" vertex="1" parent="1">
      <mxGeometry x="-460" y="1130" width="30" height="20" as="geometry" />
    </mxCell>
    <mxCell id="1nn4vVufA6z5W7UZVho0-488" value="18" style="text;html=1;align=center;verticalAlign=middle;resizable=0;points=[];autosize=1;" vertex="1" parent="1">
      <mxGeometry x="-460" y="1215" width="30" height="20" as="geometry" />
    </mxCell>
    <mxCell id="1nn4vVufA6z5W7UZVho0-489" value="19" style="text;html=1;align=center;verticalAlign=middle;resizable=0;points=[];autosize=1;" vertex="1" parent="1">
      <mxGeometry x="-460" y="1330" width="30" height="20" as="geometry" />
    </mxCell>
    <mxCell id="1nn4vVufA6z5W7UZVho0-490" value="20" style="text;html=1;align=center;verticalAlign=middle;resizable=0;points=[];autosize=1;" vertex="1" parent="1">
      <mxGeometry x="-270" y="1190" width="30" height="20" as="geometry" />
    </mxCell>
    <mxCell id="1nn4vVufA6z5W7UZVho0-491" value="21" style="text;html=1;align=center;verticalAlign=middle;resizable=0;points=[];autosize=1;" vertex="1" parent="1">
      <mxGeometry x="550" y="980" width="30" height="20" as="geometry" />
    </mxCell>
    <mxCell id="1nn4vVufA6z5W7UZVho0-492" value="22" style="text;html=1;align=center;verticalAlign=middle;resizable=0;points=[];autosize=1;" vertex="1" parent="1">
      <mxGeometry x="570" y="1100" width="30" height="20" as="geometry" />
    </mxCell>
    <mxCell id="1nn4vVufA6z5W7UZVho0-493" value="23" style="text;html=1;align=center;verticalAlign=middle;resizable=0;points=[];autosize=1;" vertex="1" parent="1">
      <mxGeometry x="790" y="790" width="30" height="20" as="geometry" />
    </mxCell>
    <mxCell id="1nn4vVufA6z5W7UZVho0-495" value="25" style="text;html=1;align=center;verticalAlign=middle;resizable=0;points=[];autosize=1;" vertex="1" parent="1">
      <mxGeometry x="780" y="990" width="30" height="20" as="geometry" />
    </mxCell>
    <mxCell id="1nn4vVufA6z5W7UZVho0-496" value="26" style="text;html=1;align=center;verticalAlign=middle;resizable=0;points=[];autosize=1;" vertex="1" parent="1">
      <mxGeometry x="780" y="1110" width="30" height="20" as="geometry" />
    </mxCell>
    <mxCell id="1nn4vVufA6z5W7UZVho0-497" value="27" style="text;html=1;align=center;verticalAlign=middle;resizable=0;points=[];autosize=1;" vertex="1" parent="1">
      <mxGeometry x="780" y="1210" width="30" height="20" as="geometry" />
    </mxCell>
    <mxCell id="1nn4vVufA6z5W7UZVho0-197" parent="0" />
    <mxCell id="1nn4vVufA6z5W7UZVho0-198" style="vsdxID=255;fillColor=#ffffff;gradientColor=none;shape=stencil(nY9LDoAgDERP0z3SI/i5BwkoRAUC+Lu9kGo0Lt3NtK/tFLCOWngFnMUU3Kg2I5MGbIBzY7UKJmUF2ALWvQtqCG6xkrwXhSxqdmvZsNNcxViZ4ewgT64jdDL2hf4E7wsXmsWThd549765c4l+xvYE);strokeColor=#404040;strokeWidth=3;spacingTop=-1;spacingBottom=-1;spacingLeft=-1;spacingRight=-1;labelBackgroundColor=#ffffff;rounded=0;html=1;whiteSpace=wrap;" vertex="1" parent="1nn4vVufA6z5W7UZVho0-197">
      <mxGeometry x="717.2900000000002" y="1414.57" width="740" height="220" as="geometry" />
    </mxCell>
    <mxCell id="1nn4vVufA6z5W7UZVho0-199" style="vsdxID=280;edgeStyle=none;startArrow=none;endArrow=none;startSize=5;endSize=5;strokeWidth=3;strokeColor=#404040;spacingTop=-1;spacingBottom=-1;spacingLeft=-1;spacingRight=-1;verticalAlign=middle;html=1;labelBackgroundColor=#ffffff;rounded=0;" edge="1" parent="1nn4vVufA6z5W7UZVho0-197">
      <mxGeometry relative="1" as="geometry">
        <Array as="points" />
        <mxPoint x="743.2900000000002" y="1414.57" as="sourcePoint" />
        <mxPoint x="743.2900000000002" y="1513.57" as="targetPoint" />
      </mxGeometry>
    </mxCell>
    <mxCell id="1nn4vVufA6z5W7UZVho0-200" style="vsdxID=279;edgeStyle=none;startArrow=none;endArrow=none;startSize=5;endSize=5;strokeColor=#404040;spacingTop=-1;spacingBottom=-1;spacingLeft=-1;spacingRight=-1;verticalAlign=middle;html=1;labelBackgroundColor=#ffffff;rounded=0;" edge="1" parent="1nn4vVufA6z5W7UZVho0-197">
      <mxGeometry relative="1" as="geometry">
        <mxPoint as="offset" />
        <Array as="points" />
        <mxPoint x="717.2900000000002" y="1614.57" as="sourcePoint" />
        <mxPoint x="977.2900000000002" y="1614.57" as="targetPoint" />
      </mxGeometry>
    </mxCell>
    <mxCell id="1nn4vVufA6z5W7UZVho0-201" style="vsdxID=278;edgeStyle=none;startArrow=none;endArrow=none;startSize=5;endSize=5;strokeColor=#404040;spacingTop=-1;spacingBottom=-1;spacingLeft=-1;spacingRight=-1;verticalAlign=middle;html=1;labelBackgroundColor=#ffffff;rounded=0;" edge="1" parent="1nn4vVufA6z5W7UZVho0-197">
      <mxGeometry relative="1" as="geometry">
        <mxPoint as="offset" />
        <Array as="points" />
        <mxPoint x="717.2900000000002" y="1594.57" as="sourcePoint" />
        <mxPoint x="977.2900000000002" y="1594.57" as="targetPoint" />
      </mxGeometry>
    </mxCell>
    <mxCell id="1nn4vVufA6z5W7UZVho0-202" style="vsdxID=277;edgeStyle=none;startArrow=none;endArrow=none;startSize=5;endSize=5;strokeColor=#404040;spacingTop=-1;spacingBottom=-1;spacingLeft=-1;spacingRight=-1;verticalAlign=middle;html=1;labelBackgroundColor=#ffffff;rounded=0;" edge="1" parent="1nn4vVufA6z5W7UZVho0-197">
      <mxGeometry relative="1" as="geometry">
        <mxPoint as="offset" />
        <Array as="points" />
        <mxPoint x="717.2900000000002" y="1574.57" as="sourcePoint" />
        <mxPoint x="977.2900000000002" y="1574.57" as="targetPoint" />
      </mxGeometry>
    </mxCell>
    <mxCell id="1nn4vVufA6z5W7UZVho0-203" style="vsdxID=276;edgeStyle=none;startArrow=none;endArrow=none;startSize=5;endSize=5;strokeColor=#404040;spacingTop=-1;spacingBottom=-1;spacingLeft=-1;spacingRight=-1;verticalAlign=middle;html=1;labelBackgroundColor=#ffffff;rounded=0;" edge="1" parent="1nn4vVufA6z5W7UZVho0-197">
      <mxGeometry relative="1" as="geometry">
        <mxPoint as="offset" />
        <Array as="points" />
        <mxPoint x="717.2900000000002" y="1554.57" as="sourcePoint" />
        <mxPoint x="977.2900000000002" y="1554.57" as="targetPoint" />
      </mxGeometry>
    </mxCell>
    <mxCell id="1nn4vVufA6z5W7UZVho0-204" style="vsdxID=275;edgeStyle=none;startArrow=none;endArrow=none;startSize=5;endSize=5;strokeColor=#404040;spacingTop=-1;spacingBottom=-1;spacingLeft=-1;spacingRight=-1;verticalAlign=middle;html=1;labelBackgroundColor=#ffffff;rounded=0;" edge="1" parent="1nn4vVufA6z5W7UZVho0-197">
      <mxGeometry relative="1" as="geometry">
        <mxPoint as="offset" />
        <Array as="points" />
        <mxPoint x="717.2900000000002" y="1534.57" as="sourcePoint" />
        <mxPoint x="977.2900000000002" y="1534.57" as="targetPoint" />
      </mxGeometry>
    </mxCell>
    <mxCell id="1nn4vVufA6z5W7UZVho0-205" style="vsdxID=274;edgeStyle=none;startArrow=none;endArrow=none;startSize=5;endSize=5;strokeWidth=3;strokeColor=#404040;spacingTop=-1;spacingBottom=-1;spacingLeft=-1;spacingRight=-1;verticalAlign=middle;html=1;labelBackgroundColor=#ffffff;rounded=0;" edge="1" parent="1nn4vVufA6z5W7UZVho0-197">
      <mxGeometry relative="1" as="geometry">
        <mxPoint as="offset" />
        <Array as="points" />
        <mxPoint x="717.2900000000002" y="1514.57" as="sourcePoint" />
        <mxPoint x="977.2900000000002" y="1514.57" as="targetPoint" />
      </mxGeometry>
    </mxCell>
    <mxCell id="1nn4vVufA6z5W7UZVho0-206" style="vsdxID=273;edgeStyle=none;startArrow=none;endArrow=none;startSize=5;endSize=5;strokeWidth=3;strokeColor=#404040;spacingTop=-1;spacingBottom=-1;spacingLeft=-1;spacingRight=-1;verticalAlign=middle;html=1;labelBackgroundColor=#ffffff;rounded=0;" edge="1" parent="1nn4vVufA6z5W7UZVho0-197">
      <mxGeometry relative="1" as="geometry">
        <mxPoint as="offset" />
        <Array as="points" />
        <mxPoint x="717.2900000000002" y="1494.57" as="sourcePoint" />
        <mxPoint x="977.2900000000002" y="1494.57" as="targetPoint" />
      </mxGeometry>
    </mxCell>
    <mxCell id="1nn4vVufA6z5W7UZVho0-207" style="vsdxID=272;edgeStyle=none;startArrow=none;endArrow=none;startSize=5;endSize=5;strokeColor=#404040;spacingTop=-1;spacingBottom=-1;spacingLeft=-1;spacingRight=-1;verticalAlign=middle;html=1;labelBackgroundColor=#ffffff;rounded=0;" edge="1" parent="1nn4vVufA6z5W7UZVho0-197">
      <mxGeometry relative="1" as="geometry">
        <mxPoint as="offset" />
        <Array as="points" />
        <mxPoint x="717.2900000000002" y="1474.57" as="sourcePoint" />
        <mxPoint x="977.2900000000002" y="1474.57" as="targetPoint" />
      </mxGeometry>
    </mxCell>
    <mxCell id="1nn4vVufA6z5W7UZVho0-208" style="vsdxID=271;edgeStyle=none;startArrow=none;endArrow=none;startSize=5;endSize=5;strokeColor=#404040;spacingTop=-1;spacingBottom=-1;spacingLeft=-1;spacingRight=-1;verticalAlign=middle;html=1;labelBackgroundColor=#ffffff;rounded=0;" edge="1" parent="1nn4vVufA6z5W7UZVho0-197">
      <mxGeometry relative="1" as="geometry">
        <mxPoint as="offset" />
        <Array as="points" />
        <mxPoint x="717.2900000000002" y="1454.57" as="sourcePoint" />
        <mxPoint x="977.2900000000002" y="1454.57" as="targetPoint" />
      </mxGeometry>
    </mxCell>
    <mxCell id="1nn4vVufA6z5W7UZVho0-209" style="vsdxID=270;edgeStyle=none;startArrow=none;endArrow=none;startSize=5;endSize=5;strokeColor=#404040;spacingTop=-1;spacingBottom=-1;spacingLeft=-1;spacingRight=-1;verticalAlign=middle;html=1;labelBackgroundColor=#ffffff;rounded=0;" edge="1" parent="1nn4vVufA6z5W7UZVho0-197">
      <mxGeometry relative="1" as="geometry">
        <mxPoint as="offset" />
        <Array as="points" />
        <mxPoint x="717.2900000000002" y="1434.57" as="sourcePoint" />
        <mxPoint x="977.2900000000002" y="1434.57" as="targetPoint" />
      </mxGeometry>
    </mxCell>
    <mxCell id="1nn4vVufA6z5W7UZVho0-210" style="vsdxID=269;edgeStyle=none;startArrow=none;endArrow=none;startSize=5;endSize=5;strokeWidth=3;strokeColor=#404040;spacingTop=-1;spacingBottom=-1;spacingLeft=-1;spacingRight=-1;verticalAlign=middle;html=1;labelBackgroundColor=#ffffff;rounded=0;" edge="1" parent="1nn4vVufA6z5W7UZVho0-197">
      <mxGeometry relative="1" as="geometry">
        <Array as="points" />
        <mxPoint x="785.2900000000002" y="1414.57" as="sourcePoint" />
        <mxPoint x="785.2900000000002" y="1634.57" as="targetPoint" />
      </mxGeometry>
    </mxCell>
    <mxCell id="1nn4vVufA6z5W7UZVho0-211" style="vsdxID=268;edgeStyle=none;startArrow=none;endArrow=none;startSize=5;endSize=5;strokeWidth=3;strokeColor=#404040;spacingTop=-1;spacingBottom=-1;spacingLeft=-1;spacingRight=-1;verticalAlign=middle;html=1;labelBackgroundColor=#ffffff;rounded=0;" edge="1" parent="1nn4vVufA6z5W7UZVho0-197">
      <mxGeometry relative="1" as="geometry">
        <Array as="points" />
        <mxPoint x="877.2900000000002" y="1414.57" as="sourcePoint" />
        <mxPoint x="877.2900000000002" y="1634.57" as="targetPoint" />
      </mxGeometry>
    </mxCell>
    <mxCell id="1nn4vVufA6z5W7UZVho0-212" style="vsdxID=267;edgeStyle=none;startArrow=none;endArrow=none;startSize=5;endSize=5;strokeWidth=3;strokeColor=#404040;spacingTop=-1;spacingBottom=-1;spacingLeft=-1;spacingRight=-1;verticalAlign=middle;html=1;labelBackgroundColor=#ffffff;rounded=0;" edge="1" parent="1nn4vVufA6z5W7UZVho0-197">
      <mxGeometry relative="1" as="geometry">
        <Array as="points" />
        <mxPoint x="937.2900000000002" y="1414.57" as="sourcePoint" />
        <mxPoint x="937.2900000000002" y="1634.57" as="targetPoint" />
      </mxGeometry>
    </mxCell>
    <mxCell id="1nn4vVufA6z5W7UZVho0-213" style="vsdxID=266;edgeStyle=none;startArrow=none;endArrow=none;startSize=5;endSize=5;strokeWidth=3;strokeColor=#404040;spacingTop=-1;spacingBottom=-1;spacingLeft=-1;spacingRight=-1;verticalAlign=middle;html=1;labelBackgroundColor=#ffffff;rounded=0;" edge="1" parent="1nn4vVufA6z5W7UZVho0-197">
      <mxGeometry relative="1" as="geometry">
        <Array as="points" />
        <mxPoint x="1387.29" y="1474.57" as="sourcePoint" />
        <mxPoint x="1387.29" y="1554.57" as="targetPoint" />
      </mxGeometry>
    </mxCell>
    <mxCell id="1nn4vVufA6z5W7UZVho0-214" style="vsdxID=265;edgeStyle=none;startArrow=none;endArrow=none;startSize=5;endSize=5;strokeWidth=3;strokeColor=#404040;spacingTop=-1;spacingBottom=-1;spacingLeft=-1;spacingRight=-1;verticalAlign=middle;html=1;labelBackgroundColor=#ffffff;rounded=0;" edge="1" parent="1nn4vVufA6z5W7UZVho0-197">
      <mxGeometry relative="1" as="geometry">
        <Array as="points" />
        <mxPoint x="1337.29" y="1554.57" as="sourcePoint" />
        <mxPoint x="1337.29" y="1574.57" as="targetPoint" />
      </mxGeometry>
    </mxCell>
    <mxCell id="1nn4vVufA6z5W7UZVho0-215" style="vsdxID=264;edgeStyle=none;startArrow=none;endArrow=none;startSize=5;endSize=5;strokeColor=#404040;spacingTop=-1;spacingBottom=-1;spacingLeft=-1;spacingRight=-1;verticalAlign=middle;html=1;labelBackgroundColor=#ffffff;rounded=0;" edge="1" parent="1nn4vVufA6z5W7UZVho0-197">
      <mxGeometry relative="1" as="geometry">
        <Array as="points" />
        <mxPoint x="1297.29" y="1494.57" as="sourcePoint" />
        <mxPoint x="1297.29" y="1554.57" as="targetPoint" />
      </mxGeometry>
    </mxCell>
    <mxCell id="1nn4vVufA6z5W7UZVho0-216" style="vsdxID=263;edgeStyle=none;startArrow=none;endArrow=none;startSize=5;endSize=5;strokeColor=#404040;spacingTop=-1;spacingBottom=-1;spacingLeft=-1;spacingRight=-1;verticalAlign=middle;html=1;labelBackgroundColor=#ffffff;rounded=0;" edge="1" parent="1nn4vVufA6z5W7UZVho0-197">
      <mxGeometry relative="1" as="geometry">
        <Array as="points" />
        <mxPoint x="1277.29" y="1494.57" as="sourcePoint" />
        <mxPoint x="1277.29" y="1554.57" as="targetPoint" />
      </mxGeometry>
    </mxCell>
    <mxCell id="1nn4vVufA6z5W7UZVho0-217" style="vsdxID=262;edgeStyle=none;startArrow=none;endArrow=none;startSize=5;endSize=5;strokeWidth=3;strokeColor=#404040;spacingTop=-1;spacingBottom=-1;spacingLeft=-1;spacingRight=-1;verticalAlign=middle;html=1;labelBackgroundColor=#ffffff;rounded=0;" edge="1" parent="1nn4vVufA6z5W7UZVho0-197">
      <mxGeometry relative="1" as="geometry">
        <Array as="points" />
        <mxPoint x="1317.29" y="1474.57" as="sourcePoint" />
        <mxPoint x="1317.29" y="1554.57" as="targetPoint" />
      </mxGeometry>
    </mxCell>
    <mxCell id="1nn4vVufA6z5W7UZVho0-218" style="vsdxID=261;edgeStyle=none;startArrow=none;endArrow=none;startSize=5;endSize=5;strokeWidth=3;strokeColor=#404040;spacingTop=-1;spacingBottom=-1;spacingLeft=-1;spacingRight=-1;verticalAlign=middle;html=1;labelBackgroundColor=#ffffff;rounded=0;" edge="1" parent="1nn4vVufA6z5W7UZVho0-197">
      <mxGeometry relative="1" as="geometry">
        <mxPoint as="offset" />
        <Array as="points" />
        <mxPoint x="1257.29" y="1554.57" as="sourcePoint" />
        <mxPoint x="1460.29" y="1554.57" as="targetPoint" />
      </mxGeometry>
    </mxCell>
    <mxCell id="1nn4vVufA6z5W7UZVho0-219" style="vsdxID=260;edgeStyle=none;startArrow=none;endArrow=none;startSize=5;endSize=5;strokeWidth=3;strokeColor=#404040;spacingTop=-1;spacingBottom=-1;spacingLeft=-1;spacingRight=-1;verticalAlign=middle;html=1;labelBackgroundColor=#ffffff;rounded=0;" edge="1" parent="1nn4vVufA6z5W7UZVho0-197">
      <mxGeometry relative="1" as="geometry">
        <mxPoint as="offset" />
        <Array as="points" />
        <mxPoint x="1257.29" y="1494.57" as="sourcePoint" />
        <mxPoint x="1460.29" y="1494.57" as="targetPoint" />
      </mxGeometry>
    </mxCell>
    <mxCell id="1nn4vVufA6z5W7UZVho0-220" style="vsdxID=259;edgeStyle=none;startArrow=none;endArrow=none;startSize=5;endSize=5;strokeWidth=3;strokeColor=#404040;spacingTop=-1;spacingBottom=-1;spacingLeft=-1;spacingRight=-1;verticalAlign=middle;html=1;labelBackgroundColor=#ffffff;rounded=0;" edge="1" parent="1nn4vVufA6z5W7UZVho0-197">
      <mxGeometry relative="1" as="geometry">
        <Array as="points" />
        <mxPoint x="1257.29" y="1474.57" as="sourcePoint" />
        <mxPoint x="1257.29" y="1634.57" as="targetPoint" />
      </mxGeometry>
    </mxCell>
    <mxCell id="1nn4vVufA6z5W7UZVho0-221" style="vsdxID=258;edgeStyle=none;startArrow=none;endArrow=none;startSize=5;endSize=5;strokeWidth=3;strokeColor=#404040;spacingTop=-1;spacingBottom=-1;spacingLeft=-1;spacingRight=-1;verticalAlign=middle;html=1;labelBackgroundColor=#ffffff;rounded=0;" edge="1" parent="1nn4vVufA6z5W7UZVho0-197">
      <mxGeometry relative="1" as="geometry">
        <Array as="points" />
        <mxPoint x="1460.29" y="1574.57" as="sourcePoint" />
        <mxPoint x="977.2900000000002" y="1574.57" as="targetPoint" />
      </mxGeometry>
    </mxCell>
    <mxCell id="1nn4vVufA6z5W7UZVho0-222" style="vsdxID=257;edgeStyle=none;startArrow=none;endArrow=none;startSize=5;endSize=5;strokeWidth=3;strokeColor=#404040;spacingTop=-1;spacingBottom=-1;spacingLeft=-1;spacingRight=-1;verticalAlign=middle;html=1;labelBackgroundColor=#ffffff;rounded=0;" edge="1" parent="1nn4vVufA6z5W7UZVho0-197">
      <mxGeometry relative="1" as="geometry">
        <Array as="points" />
        <mxPoint x="977.2900000000002" y="1414.57" as="sourcePoint" />
        <mxPoint x="977.2900000000002" y="1634.57" as="targetPoint" />
      </mxGeometry>
    </mxCell>
    <mxCell id="1nn4vVufA6z5W7UZVho0-223" style="vsdxID=256;edgeStyle=none;startArrow=none;endArrow=none;startSize=5;endSize=5;strokeWidth=3;strokeColor=#404040;spacingTop=-1;spacingBottom=-1;spacingLeft=-1;spacingRight=-1;verticalAlign=middle;html=1;labelBackgroundColor=#ffffff;rounded=0;" edge="1" parent="1nn4vVufA6z5W7UZVho0-197">
      <mxGeometry relative="1" as="geometry">
        <Array as="points" />
        <mxPoint x="1458.29" y="1474.57" as="sourcePoint" />
        <mxPoint x="980.2900000000002" y="1474.57" as="targetPoint" />
      </mxGeometry>
    </mxCell>
    <mxCell id="1nn4vVufA6z5W7UZVho0-224" value="&lt;font style=&quot;font-size:11px;font-family:Arial;color:#000000;direction:ltr;letter-spacing:0px;line-height:120%;opacity:1&quot;&gt;&lt;i&gt;Изм&lt;br/&gt;&lt;/i&gt;&lt;/font&gt;" style="verticalAlign=middle;align=center;vsdxID=281;fillColor=none;gradientColor=none;shape=stencil(nZBLDoAgDERP0z3SIyjew0SURgSD+Lu9kMZoXLhwN9O+tukAlrNpJg1SzDH4QW/URgNYgZTkjA4UkwJUgGXng+6DX1zLfmoymdXo17xh5zmRJ6Q42BWCfc2oJfdAr+Yv+AP9Cb7OJ3H/2JG1HNGz/84klThPVCc=);strokeColor=none;strokeWidth=4;spacingTop=-1;spacingBottom=-1;spacingLeft=-1;spacingRight=-1;labelBackgroundColor=none;rounded=0;html=1;whiteSpace=wrap;" vertex="1" parent="1nn4vVufA6z5W7UZVho0-197">
      <mxGeometry x="716.2900000000002" y="1496.57" width="27" height="17" as="geometry" />
    </mxCell>
    <mxCell id="1nn4vVufA6z5W7UZVho0-225" value="&lt;font style=&quot;font-size:11px;font-family:Arial;color:#000000;direction:ltr;letter-spacing:0px;line-height:120%;opacity:1&quot;&gt;&lt;i&gt;Лист&lt;br/&gt;&lt;/i&gt;&lt;/font&gt;" style="verticalAlign=middle;align=center;vsdxID=282;fillColor=none;gradientColor=none;shape=stencil(nZBLDoAgDERP0z3SIyjew0SURgSD+Lu9kMZoXLhwN9O+tukAlrNpJg1SzDH4QW/URgNYgZTkjA4UkwJUgGXng+6DX1zLfmoymdXo17xh5zmRJ6Q42BWCfc2oJfdAr+Yv+AP9Cb7OJ3H/2JG1HNGz/84klThPVCc=);strokeColor=none;strokeWidth=4;spacingTop=-1;spacingBottom=-1;spacingLeft=-1;spacingRight=-1;labelBackgroundColor=none;rounded=0;html=1;whiteSpace=wrap;" vertex="1" parent="1nn4vVufA6z5W7UZVho0-197">
      <mxGeometry x="747.2900000000002" y="1496.57" width="36" height="16" as="geometry" />
    </mxCell>
    <mxCell id="1nn4vVufA6z5W7UZVho0-226" value="&lt;font style=&quot;font-size:11px;font-family:Arial;color:#000000;direction:ltr;letter-spacing:0px;line-height:120%;opacity:1&quot;&gt;&lt;i&gt;№ документа&lt;br/&gt;&lt;/i&gt;&lt;/font&gt;" style="verticalAlign=middle;align=center;vsdxID=283;fillColor=none;gradientColor=none;shape=stencil(nZBLDoAgDERP0z3SIyjew0SURgSD+Lu9kMZoXLhwN9O+tukAlrNpJg1SzDH4QW/URgNYgZTkjA4UkwJUgGXng+6DX1zLfmoymdXo17xh5zmRJ6Q42BWCfc2oJfdAr+Yv+AP9Cb7OJ3H/2JG1HNGz/84klThPVCc=);strokeColor=none;strokeWidth=4;spacingTop=-1;spacingBottom=-1;spacingLeft=-1;spacingRight=-1;labelBackgroundColor=none;rounded=0;html=1;whiteSpace=wrap;" vertex="1" parent="1nn4vVufA6z5W7UZVho0-197">
      <mxGeometry x="787.2900000000002" y="1496.57" width="88" height="16" as="geometry" />
    </mxCell>
    <mxCell id="1nn4vVufA6z5W7UZVho0-227" value="&lt;font style=&quot;font-size:11px;font-family:Arial;color:#000000;direction:ltr;letter-spacing:0px;line-height:120%;opacity:1&quot;&gt;&lt;i&gt;Подпись&lt;br/&gt;&lt;/i&gt;&lt;/font&gt;" style="verticalAlign=middle;align=center;vsdxID=284;fillColor=none;gradientColor=none;shape=stencil(nZBLDoAgDERP0z3SIyjew0SURgSD+Lu9kMZoXLhwN9O+tukAlrNpJg1SzDH4QW/URgNYgZTkjA4UkwJUgGXng+6DX1zLfmoymdXo17xh5zmRJ6Q42BWCfc2oJfdAr+Yv+AP9Cb7OJ3H/2JG1HNGz/84klThPVCc=);strokeColor=none;strokeWidth=3;spacingTop=-1;spacingBottom=-1;spacingLeft=-1;spacingRight=-1;labelBackgroundColor=none;rounded=0;html=1;whiteSpace=wrap;" vertex="1" parent="1nn4vVufA6z5W7UZVho0-197">
      <mxGeometry x="879.2900000000002" y="1496.57" width="56" height="16" as="geometry" />
    </mxCell>
    <mxCell id="1nn4vVufA6z5W7UZVho0-228" value="&lt;font style=&quot;font-size:11px;font-family:Arial;color:#000000;direction:ltr;letter-spacing:0px;line-height:120%;opacity:1&quot;&gt;&lt;i&gt;Дата&lt;br/&gt;&lt;/i&gt;&lt;/font&gt;" style="verticalAlign=middle;align=center;vsdxID=285;fillColor=none;gradientColor=none;shape=stencil(nZBLDoAgDERP0z3SIyjew0SURgSD+Lu9kMZoXLhwN9O+tukAlrNpJg1SzDH4QW/URgNYgZTkjA4UkwJUgGXng+6DX1zLfmoymdXo17xh5zmRJ6Q42BWCfc2oJfdAr+Yv+AP9Cb7OJ3H/2JG1HNGz/84klThPVCc=);strokeColor=none;strokeWidth=4;spacingTop=-1;spacingBottom=-1;spacingLeft=-1;spacingRight=-1;labelBackgroundColor=none;rounded=0;html=1;whiteSpace=wrap;" vertex="1" parent="1nn4vVufA6z5W7UZVho0-197">
      <mxGeometry x="939.2900000000002" y="1496.57" width="36" height="16" as="geometry" />
    </mxCell>
    <mxCell id="1nn4vVufA6z5W7UZVho0-229" value="&lt;font style=&quot;font-size:11px;font-family:Arial;color:#000000;direction:ltr;letter-spacing:0px;line-height:120%;opacity:1&quot;&gt;&lt;i&gt;Лит.&lt;br/&gt;&lt;/i&gt;&lt;/font&gt;" style="verticalAlign=middle;align=center;vsdxID=286;fillColor=none;gradientColor=none;shape=stencil(nZBLDoAgDERP0z3SIyjew0SURgSD+Lu9kMZoXLhwN9O+tukAlrNpJg1SzDH4QW/URgNYgZTkjA4UkwJUgGXng+6DX1zLfmoymdXo17xh5zmRJ6Q42BWCfc2oJfdAr+Yv+AP9Cb7OJ3H/2JG1HNGz/84klThPVCc=);strokeColor=none;strokeWidth=4;spacingTop=-1;spacingBottom=-1;spacingLeft=-1;spacingRight=-1;labelBackgroundColor=none;rounded=0;html=1;whiteSpace=wrap;" vertex="1" parent="1nn4vVufA6z5W7UZVho0-197">
      <mxGeometry x="1259.29" y="1476.57" width="56" height="16" as="geometry" />
    </mxCell>
    <mxCell id="1nn4vVufA6z5W7UZVho0-230" value="&lt;font style=&quot;font-size:11px;font-family:Arial;color:#000000;direction:ltr;letter-spacing:0px;line-height:120%;opacity:1&quot;&gt;&lt;i&gt;Масса&lt;br/&gt;&lt;/i&gt;&lt;/font&gt;" style="verticalAlign=middle;align=center;vsdxID=287;fillColor=none;gradientColor=none;shape=stencil(nZBLDoAgDERP0z3SIyjew0SURgSD+Lu9kMZoXLhwN9O+tukAlrNpJg1SzDH4QW/URgNYgZTkjA4UkwJUgGXng+6DX1zLfmoymdXo17xh5zmRJ6Q42BWCfc2oJfdAr+Yv+AP9Cb7OJ3H/2JG1HNGz/84klThPVCc=);strokeColor=none;strokeWidth=4;spacingTop=-1;spacingBottom=-1;spacingLeft=-1;spacingRight=-1;labelBackgroundColor=none;rounded=0;html=1;whiteSpace=wrap;" vertex="1" parent="1nn4vVufA6z5W7UZVho0-197">
      <mxGeometry x="1319.29" y="1476.57" width="66" height="16" as="geometry" />
    </mxCell>
    <mxCell id="1nn4vVufA6z5W7UZVho0-231" value="&lt;font style=&quot;font-size:11px;font-family:Arial;color:#000000;direction:ltr;letter-spacing:0px;line-height:120%;opacity:1&quot;&gt;&lt;i&gt;Масштаб&lt;br/&gt;&lt;/i&gt;&lt;/font&gt;" style="verticalAlign=middle;align=center;vsdxID=288;fillColor=none;gradientColor=none;shape=stencil(nZBLDoAgDERP0z3SIyjew0SURgSD+Lu9kMZoXLhwN9O+tukAlrNpJg1SzDH4QW/URgNYgZTkjA4UkwJUgGXng+6DX1zLfmoymdXo17xh5zmRJ6Q42BWCfc2oJfdAr+Yv+AP9Cb7OJ3H/2JG1HNGz/84klThPVCc=);strokeColor=none;strokeWidth=4;spacingTop=-1;spacingBottom=-1;spacingLeft=-1;spacingRight=-1;labelBackgroundColor=none;rounded=0;html=1;whiteSpace=wrap;" vertex="1" parent="1nn4vVufA6z5W7UZVho0-197">
      <mxGeometry x="1389.29" y="1476.57" width="66" height="16" as="geometry" />
    </mxCell>
    <mxCell id="1nn4vVufA6z5W7UZVho0-232" value="&lt;font style=&quot;font-size:11px;font-family:Arial;color:#000000;direction:ltr;letter-spacing:0px;line-height:120%;opacity:1&quot;&gt;&lt;i&gt;Лист&lt;br/&gt;&lt;/i&gt;&lt;/font&gt;" style="verticalAlign=middle;align=center;vsdxID=289;fillColor=none;gradientColor=none;shape=stencil(nZBLDoAgDERP0z3SIyjew0SURgSD+Lu9kMZoXLhwN9O+tukAlrNpJg1SzDH4QW/URgNYgZTkjA4UkwJUgGXng+6DX1zLfmoymdXo17xh5zmRJ6Q42BWCfc2oJfdAr+Yv+AP9Cb7OJ3H/2JG1HNGz/84klThPVCc=);strokeColor=none;strokeWidth=4;spacingTop=-1;spacingBottom=-1;spacingLeft=-1;spacingRight=-1;labelBackgroundColor=none;rounded=0;html=1;whiteSpace=wrap;" vertex="1" parent="1nn4vVufA6z5W7UZVho0-197">
      <mxGeometry x="1259.29" y="1556.57" width="76" height="16" as="geometry" />
    </mxCell>
    <mxCell id="1nn4vVufA6z5W7UZVho0-233" value="&lt;font style=&quot;font-size:11px;font-family:Arial;color:#000000;direction:ltr;letter-spacing:0px;line-height:120%;opacity:1&quot;&gt;&lt;i&gt;Листов  1&lt;br/&gt;&lt;/i&gt;&lt;/font&gt;" style="verticalAlign=middle;align=center;vsdxID=290;fillColor=none;gradientColor=none;shape=stencil(nZBLDoAgDERP0z3SIyjew0SURgSD+Lu9kMZoXLhwN9O+tukAlrNpJg1SzDH4QW/URgNYgZTkjA4UkwJUgGXng+6DX1zLfmoymdXo17xh5zmRJ6Q42BWCfc2oJfdAr+Yv+AP9Cb7OJ3H/2JG1HNGz/84klThPVCc=);strokeColor=none;strokeWidth=4;spacingTop=-1;spacingBottom=-1;spacingLeft=-1;spacingRight=-1;labelBackgroundColor=none;rounded=0;html=1;whiteSpace=wrap;" vertex="1" parent="1nn4vVufA6z5W7UZVho0-197">
      <mxGeometry x="1339.29" y="1556.57" width="116" height="16" as="geometry" />
    </mxCell>
    <mxCell id="1nn4vVufA6z5W7UZVho0-234" value="&lt;p style=&quot;margin-left: 0 ; margin-right: 0 ; margin-top: 0px ; margin-bottom: 0px ; text-indent: 0 ; direction: ltr&quot;&gt;&lt;font style=&quot;font-size: 12px ; font-family: &amp;#34;arial&amp;#34; ; color: #000000 ; direction: ltr ; letter-spacing: 0px ; line-height: 120% ; opacity: 1&quot;&gt;&lt;i&gt;Мороз&lt;br&gt;&lt;/i&gt;&lt;/font&gt;&lt;/p&gt;" style="verticalAlign=middle;align=left;vsdxID=291;fillColor=none;gradientColor=none;shape=stencil(nZBLDoAgDERP0z3SIyjew0SURgSD+Lu9kMZoXLhwN9O+tukAlrNpJg1SzDH4QW/URgNYgZTkjA4UkwJUgGXng+6DX1zLfmoymdXo17xh5zmRJ6Q42BWCfc2oJfdAr+Yv+AP9Cb7OJ3H/2JG1HNGz/84klThPVCc=);strokeColor=none;strokeWidth=4;spacingTop=-1;spacingBottom=-1;spacingLeft=-1;spacingRight=-1;labelBackgroundColor=none;rounded=0;html=1;whiteSpace=wrap;" vertex="1" parent="1nn4vVufA6z5W7UZVho0-197">
      <mxGeometry x="788.2900000000002" y="1514.57" width="76" height="20" as="geometry" />
    </mxCell>
    <mxCell id="1nn4vVufA6z5W7UZVho0-235" value="&lt;p style=&quot;align:right;margin-left:0;margin-right:0;margin-top:0px;margin-bottom:0px;text-indent:0;valign:middle;direction:ltr;&quot;&gt;&lt;font style=&quot;font-size:12px;font-family:Arial;color:#000000;direction:ltr;letter-spacing:0px;line-height:120%;opacity:1&quot;&gt;&lt;i&gt;Руковод.&lt;br/&gt;&lt;/i&gt;&lt;/font&gt;&lt;/p&gt;" style="verticalAlign=middle;align=right;vsdxID=292;fillColor=none;gradientColor=none;shape=stencil(nZBLDoAgDERP0z3SIyjew0SURgSD+Lu9kMZoXLhwN9O+tukAlrNpJg1SzDH4QW/URgNYgZTkjA4UkwJUgGXng+6DX1zLfmoymdXo17xh5zmRJ6Q42BWCfc2oJfdAr+Yv+AP9Cb7OJ3H/2JG1HNGz/84klThPVCc=);strokeColor=none;strokeWidth=4;spacingTop=-1;spacingBottom=-1;spacingLeft=-1;spacingRight=-1;labelBackgroundColor=none;rounded=0;html=1;whiteSpace=wrap;" vertex="1" parent="1nn4vVufA6z5W7UZVho0-197">
      <mxGeometry x="712.2900000000002" y="1534.57" width="64" height="20" as="geometry" />
    </mxCell>
    <mxCell id="1nn4vVufA6z5W7UZVho0-236" value="&lt;p style=&quot;align:right;margin-left:0;margin-right:0;margin-top:0px;margin-bottom:0px;text-indent:0;valign:middle;direction:ltr;&quot;&gt;&lt;font style=&quot;font-size:12px;font-family:Arial;color:#000000;direction:ltr;letter-spacing:0px;line-height:120%;opacity:1&quot;&gt;&lt;i&gt;Разраб.&lt;br/&gt;&lt;/i&gt;&lt;/font&gt;&lt;/p&gt;" style="verticalAlign=middle;align=right;vsdxID=293;fillColor=none;gradientColor=none;shape=stencil(nZBLDoAgDERP0z3SIyjew0SURgSD+Lu9kMZoXLhwN9O+tukAlrNpJg1SzDH4QW/URgNYgZTkjA4UkwJUgGXng+6DX1zLfmoymdXo17xh5zmRJ6Q42BWCfc2oJfdAr+Yv+AP9Cb7OJ3H/2JG1HNGz/84klThPVCc=);strokeColor=none;strokeWidth=4;spacingTop=-1;spacingBottom=-1;spacingLeft=-1;spacingRight=-1;labelBackgroundColor=none;rounded=0;html=1;whiteSpace=wrap;" vertex="1" parent="1nn4vVufA6z5W7UZVho0-197">
      <mxGeometry x="708.2900000000002" y="1516.57" width="64" height="16" as="geometry" />
    </mxCell>
    <mxCell id="1nn4vVufA6z5W7UZVho0-237" value="&lt;p style=&quot;margin-left: 0 ; margin-right: 0 ; margin-top: 0px ; margin-bottom: 0px ; text-indent: 0 ; direction: ltr&quot;&gt;&lt;font face=&quot;arial&quot;&gt;&lt;i&gt;Шульга&lt;/i&gt;&lt;/font&gt;&lt;/p&gt;" style="verticalAlign=middle;align=left;vsdxID=294;fillColor=none;gradientColor=none;shape=stencil(nZBLDoAgDERP0z3SIyjew0SURgSD+Lu9kMZoXLhwN9O+tukAlrNpJg1SzDH4QW/URgNYgZTkjA4UkwJUgGXng+6DX1zLfmoymdXo17xh5zmRJ6Q42BWCfc2oJfdAr+Yv+AP9Cb7OJ3H/2JG1HNGz/84klThPVCc=);strokeColor=none;strokeWidth=4;spacingTop=-1;spacingBottom=-1;spacingLeft=-1;spacingRight=-1;labelBackgroundColor=none;rounded=0;html=1;whiteSpace=wrap;" vertex="1" parent="1nn4vVufA6z5W7UZVho0-197">
      <mxGeometry x="788.2900000000002" y="1534.57" width="88" height="20" as="geometry" />
    </mxCell>
    <mxCell id="1nn4vVufA6z5W7UZVho0-238" value="&lt;p style=&quot;margin-left: 0 ; margin-right: 0 ; margin-top: 0px ; margin-bottom: 0px ; text-indent: 0 ; direction: ltr&quot;&gt;&lt;font style=&quot;font-size: 19px ; font-family: &amp;#34;arial&amp;#34; ; color: #000000 ; direction: ltr ; letter-spacing: 0px ; line-height: 120% ; opacity: 1&quot;&gt;&lt;i&gt;ПОИТ, гр.851004&lt;br&gt;&lt;/i&gt;&lt;/font&gt;&lt;/p&gt;" style="verticalAlign=middle;align=center;vsdxID=295;fillColor=none;gradientColor=none;shape=stencil(nZBLDoAgDERP0z3SIyjew0SURgSD+Lu9kMZoXLhwN9O+tukAlrNpJg1SzDH4QW/URgNYgZTkjA4UkwJUgGXng+6DX1zLfmoymdXo17xh5zmRJ6Q42BWCfc2oJfdAr+Yv+AP9Cb7OJ3H/2JG1HNGz/84klThPVCc=);strokeColor=none;strokeWidth=4;spacingTop=-1;spacingBottom=-1;spacingLeft=-1;spacingRight=-1;labelBackgroundColor=none;rounded=0;html=1;whiteSpace=wrap;" vertex="1" parent="1nn4vVufA6z5W7UZVho0-197">
      <mxGeometry x="1258.29" y="1598.57" width="193" height="16" as="geometry" />
    </mxCell>
    <mxCell id="1nn4vVufA6z5W7UZVho0-239" value="&lt;p style=&quot;margin: 0px; text-indent: 0px; direction: ltr; font-size: 15px;&quot;&gt;&lt;font face=&quot;arial&quot; style=&quot;font-size: 15px;&quot;&gt;&lt;span style=&quot;font-size: 15px;&quot;&gt;Схема сетевого взаимодействия между клиентом и сервером. Схема алгоритма&lt;/span&gt;&lt;/font&gt;&lt;/p&gt;" style="verticalAlign=middle;align=center;vsdxID=296;fillColor=none;gradientColor=none;shape=stencil(nZBLDoAgDERP0z3SIyjew0SURgSD+Lu9kMZoXLhwN9O+tukAlrNpJg1SzDH4QW/URgNYgZTkjA4UkwJUgGXng+6DX1zLfmoymdXo17xh5zmRJ6Q42BWCfc2oJfdAr+Yv+AP9Cb7OJ3H/2JG1HNGz/84klThPVCc=);strokeColor=none;spacingTop=-1;spacingBottom=-1;spacingLeft=-1;spacingRight=-1;labelBackgroundColor=none;rounded=0;html=1;whiteSpace=wrap;fontSize=15;" vertex="1" parent="1nn4vVufA6z5W7UZVho0-197">
      <mxGeometry x="999.2900000000002" y="1488.57" width="240" height="80" as="geometry" />
    </mxCell>
    <mxCell id="1nn4vVufA6z5W7UZVho0-240" value="&lt;p style=&quot;margin-left: 0 ; margin-right: 0 ; margin-top: 0px ; margin-bottom: 0px ; text-indent: 0 ; direction: ltr&quot;&gt;&lt;font style=&quot;font-size: 28px ; font-family: &amp;#34;arial&amp;#34; ; color: #000000 ; direction: ltr ; letter-spacing: 0px ; line-height: 120% ; opacity: 1&quot;&gt;&lt;i&gt;ГУИР.851004-01 СА&lt;/i&gt;&lt;/font&gt;&lt;font style=&quot;font-size: 28px ; font-family: &amp;#34;arial&amp;#34; ; color: #000000 ; direction: ltr ; letter-spacing: 0px ; line-height: 120% ; opacity: 1&quot;&gt;&lt;i&gt;&lt;br&gt;&lt;/i&gt;&lt;/font&gt;&lt;/p&gt;" style="verticalAlign=middle;align=center;vsdxID=297;fillColor=none;gradientColor=none;shape=stencil(nZBLDoAgDERP0z3SIyjew0SURgSD+Lu9kMZoXLhwN9O+tukAlrNpJg1SzDH4QW/URgNYgZTkjA4UkwJUgGXng+6DX1zLfmoymdXo17xh5zmRJ6Q42BWCfc2oJfdAr+Yv+AP9Cb7OJ3H/2JG1HNGz/84klThPVCc=);strokeColor=none;labelBackgroundColor=none;rounded=0;html=1;whiteSpace=wrap;" vertex="1" parent="1nn4vVufA6z5W7UZVho0-197">
      <mxGeometry x="977.2900000000002" y="1414.57" width="474" height="60" as="geometry" />
    </mxCell>
    <mxCell id="1nn4vVufA6z5W7UZVho0-241" value="&lt;font style=&quot;font-size:19px;font-family:Arial;color:#000000;direction:ltr;letter-spacing:0px;line-height:120%;opacity:1&quot;&gt;&lt;i&gt;У&lt;br/&gt;&lt;/i&gt;&lt;/font&gt;" style="verticalAlign=middle;align=center;vsdxID=299;fillColor=none;gradientColor=none;shape=stencil(nZBLDoAgDERP0z3SIyjew0SURgSD+Lu9kMZoXLhwN9O+tukAlrNpJg1SzDH4QW/URgNYgZTkjA4UkwJUgGXng+6DX1zLfmoymdXo17xh5zmRJ6Q42BWCfc2oJfdAr+Yv+AP9Cb7OJ3H/2JG1HNGz/84klThPVCc=);strokeColor=none;strokeWidth=4;spacingTop=-1;spacingBottom=-1;spacingLeft=-1;spacingRight=-1;labelBackgroundColor=none;rounded=0;html=1;whiteSpace=wrap;" vertex="1" parent="1nn4vVufA6z5W7UZVho0-197">
      <mxGeometry x="1276.29" y="1520.57" width="20" height="16" as="geometry" />
    </mxCell>
    <mxCell id="1nn4vVufA6z5W7UZVho0-242" value="&lt;p style=&quot;align:left;margin-left:0;margin-right:0;margin-top:0px;margin-bottom:0px;text-indent:0;valign:middle;direction:ltr;&quot;&gt;&lt;font style=&quot;font-size:12px;font-family:Arial;color:#000000;direction:ltr;letter-spacing:0px;line-height:120%;opacity:1&quot;&gt;&lt;i&gt;Т. Контр&lt;br/&gt;&lt;/i&gt;&lt;/font&gt;&lt;/p&gt;" style="verticalAlign=middle;align=left;vsdxID=300;fillColor=none;gradientColor=none;shape=stencil(nZBLDoAgDERP0z3SIyjew0SURgSD+Lu9kMZoXLhwN9O+tukAlrNpJg1SzDH4QW/URgNYgZTkjA4UkwJUgGXng+6DX1zLfmoymdXo17xh5zmRJ6Q42BWCfc2oJfdAr+Yv+AP9Cb7OJ3H/2JG1HNGz/84klThPVCc=);strokeColor=none;spacingTop=-1;spacingBottom=-1;spacingLeft=-1;spacingRight=-1;labelBackgroundColor=none;rounded=0;html=1;whiteSpace=wrap;" vertex="1" parent="1nn4vVufA6z5W7UZVho0-197">
      <mxGeometry x="718.2900000000002" y="1556.57" width="68" height="16" as="geometry" />
    </mxCell>
    <mxCell id="1nn4vVufA6z5W7UZVho0-243" value="&lt;p style=&quot;align:left;margin-left:0;margin-right:0;margin-top:0px;margin-bottom:0px;text-indent:0;valign:middle;direction:ltr;&quot;&gt;&lt;font style=&quot;font-size:12px;font-family:Arial;color:#000000;direction:ltr;letter-spacing:0px;line-height:120%;opacity:1&quot;&gt;&lt;i&gt;Н. Контр&lt;br/&gt;&lt;/i&gt;&lt;/font&gt;&lt;/p&gt;" style="verticalAlign=middle;align=left;vsdxID=301;fillColor=none;gradientColor=none;shape=stencil(nZBLDoAgDERP0z3SIyjew0SURgSD+Lu9kMZoXLhwN9O+tukAlrNpJg1SzDH4QW/URgNYgZTkjA4UkwJUgGXng+6DX1zLfmoymdXo17xh5zmRJ6Q42BWCfc2oJfdAr+Yv+AP9Cb7OJ3H/2JG1HNGz/84klThPVCc=);strokeColor=none;spacingTop=-1;spacingBottom=-1;spacingLeft=-1;spacingRight=-1;labelBackgroundColor=none;rounded=0;html=1;whiteSpace=wrap;" vertex="1" parent="1nn4vVufA6z5W7UZVho0-197">
      <mxGeometry x="720.2900000000002" y="1580.57" width="68" height="16" as="geometry" />
    </mxCell>
    <mxCell id="1nn4vVufA6z5W7UZVho0-244" value="&lt;p style=&quot;margin-left: 0 ; margin-right: 0 ; margin-top: 0px ; margin-bottom: 0px ; text-indent: 0 ; direction: ltr&quot;&gt;&lt;font face=&quot;arial&quot;&gt;&lt;i&gt;Шульга&lt;/i&gt;&lt;/font&gt;&lt;/p&gt;" style="verticalAlign=middle;align=left;vsdxID=302;fillColor=none;gradientColor=none;shape=stencil(nZBLDoAgDERP0z3SIyjew0SURgSD+Lu9kMZoXLhwN9O+tukAlrNpJg1SzDH4QW/URgNYgZTkjA4UkwJUgGXng+6DX1zLfmoymdXo17xh5zmRJ6Q42BWCfc2oJfdAr+Yv+AP9Cb7OJ3H/2JG1HNGz/84klThPVCc=);strokeColor=none;strokeWidth=4;spacingTop=-1;spacingBottom=-1;spacingLeft=-1;spacingRight=-1;labelBackgroundColor=none;rounded=0;html=1;whiteSpace=wrap;" vertex="1" parent="1nn4vVufA6z5W7UZVho0-197">
      <mxGeometry x="788.2900000000002" y="1578.57" width="88" height="20" as="geometry" />
    </mxCell>
    <mxCell id="1nn4vVufA6z5W7UZVho0-245" value="&lt;p style=&quot;margin-left: 0 ; margin-right: 0 ; margin-top: 0px ; margin-bottom: 0px ; text-indent: 0 ; direction: ltr&quot;&gt;&lt;font face=&quot;arial&quot;&gt;&lt;i&gt;Шульга&lt;/i&gt;&lt;/font&gt;&lt;/p&gt;" style="verticalAlign=middle;align=left;vsdxID=303;fillColor=none;gradientColor=none;shape=stencil(nZBLDoAgDERP0z3SIyjew0SURgSD+Lu9kMZoXLhwN9O+tukAlrNpJg1SzDH4QW/URgNYgZTkjA4UkwJUgGXng+6DX1zLfmoymdXo17xh5zmRJ6Q42BWCfc2oJfdAr+Yv+AP9Cb7OJ3H/2JG1HNGz/84klThPVCc=);strokeColor=none;strokeWidth=4;spacingTop=-1;spacingBottom=-1;spacingLeft=-1;spacingRight=-1;labelBackgroundColor=none;rounded=0;html=1;whiteSpace=wrap;" vertex="1" parent="1nn4vVufA6z5W7UZVho0-197">
      <mxGeometry x="788.2900000000002" y="1612.57" width="88" height="20" as="geometry" />
    </mxCell>
    <mxCell id="1nn4vVufA6z5W7UZVho0-246" value="&lt;p style=&quot;align:left;margin-left:0;margin-right:0;margin-top:0px;margin-bottom:0px;text-indent:0;valign:middle;direction:ltr;&quot;&gt;&lt;font style=&quot;font-size:12px;font-family:Arial;color:#000000;direction:ltr;letter-spacing:0px;line-height:120%;opacity:1&quot;&gt;&lt;i&gt;Реценз.&lt;br/&gt;&lt;/i&gt;&lt;/font&gt;&lt;/p&gt;" style="verticalAlign=middle;align=left;vsdxID=304;fillColor=none;gradientColor=none;shape=stencil(nZBLDoAgDERP0z3SIyjew0SURgSD+Lu9kMZoXLhwN9O+tukAlrNpJg1SzDH4QW/URgNYgZTkjA4UkwJUgGXng+6DX1zLfmoymdXo17xh5zmRJ6Q42BWCfc2oJfdAr+Yv+AP9Cb7OJ3H/2JG1HNGz/84klThPVCc=);strokeColor=none;spacingTop=-1;spacingBottom=-1;spacingLeft=-1;spacingRight=-1;labelBackgroundColor=none;rounded=0;html=1;whiteSpace=wrap;" vertex="1" parent="1nn4vVufA6z5W7UZVho0-197">
      <mxGeometry x="720.2900000000002" y="1598.57" width="60" height="16" as="geometry" />
    </mxCell>
    <mxCell id="1nn4vVufA6z5W7UZVho0-247" value="&lt;p style=&quot;align:left;margin-left:0;margin-right:0;margin-top:0px;margin-bottom:0px;text-indent:0;valign:middle;direction:ltr;&quot;&gt;&lt;font style=&quot;font-size:14px;font-family:Arial;color:#000000;direction:ltr;letter-spacing:0px;line-height:120%;opacity:1&quot;&gt;&lt;i&gt;Утв.&lt;br/&gt;&lt;/i&gt;&lt;/font&gt;&lt;/p&gt;" style="verticalAlign=middle;align=left;vsdxID=305;fillColor=none;gradientColor=none;shape=stencil(nZBLDoAgDERP0z3SIyjew0SURgSD+Lu9kMZoXLhwN9O+tukAlrNpJg1SzDH4QW/URgNYgZTkjA4UkwJUgGXng+6DX1zLfmoymdXo17xh5zmRJ6Q42BWCfc2oJfdAr+Yv+AP9Cb7OJ3H/2JG1HNGz/84klThPVCc=);strokeColor=none;spacingTop=-1;spacingBottom=-1;spacingLeft=-1;spacingRight=-1;labelBackgroundColor=none;rounded=0;html=1;whiteSpace=wrap;" vertex="1" parent="1nn4vVufA6z5W7UZVho0-197">
      <mxGeometry x="720.2900000000002" y="1616.57" width="38" height="16" as="geometry" />
    </mxCell>
    <mxCell id="1nn4vVufA6z5W7UZVho0-248" value="&lt;font style=&quot;font-size:11px;font-family:Arial;color:#000000;direction:ltr;letter-spacing:0px;line-height:120%;opacity:1&quot;&gt;&lt;i&gt;1&lt;br/&gt;&lt;/i&gt;&lt;/font&gt;" style="verticalAlign=middle;align=center;vsdxID=298;fillColor=none;gradientColor=none;shape=stencil(nZBLDoAgDERP0z3SIyjew0SURgSD+Lu9kMZoXLhwN9O+tukAlrNpJg1SzDH4QW/URgNYgZTkjA4UkwJUgGXng+6DX1zLfmoymdXo17xh5zmRJ6Q42BWCfc2oJfdAr+Yv+AP9Cb7OJ3H/2JG1HNGz/84klThPVCc=);strokeColor=none;strokeWidth=4;spacingTop=-1;spacingBottom=-1;spacingLeft=-1;spacingRight=-1;labelBackgroundColor=none;rounded=0;html=1;whiteSpace=wrap;" vertex="1" parent="1nn4vVufA6z5W7UZVho0-197">
      <mxGeometry x="1264.29" y="1556.57" width="116" height="16" as="geometry" />
    </mxCell>
    <mxCell id="1nn4vVufA6z5W7UZVho0-404" value="" style="edgeStyle=orthogonalEdgeStyle;rounded=0;orthogonalLoop=1;jettySize=auto;html=1;" edge="1" parent="1nn4vVufA6z5W7UZVho0-197" source="1nn4vVufA6z5W7UZVho0-250" target="1nn4vVufA6z5W7UZVho0-252">
      <mxGeometry relative="1" as="geometry" />
    </mxCell>
    <mxCell id="1nn4vVufA6z5W7UZVho0-250" value="&lt;font style=&quot;font-size: 11px ; font-family: &amp;#34;arial&amp;#34; ; color: #000000 ; direction: ltr ; letter-spacing: 0px ; line-height: 120% ; opacity: 1&quot;&gt;Начало&lt;br&gt;Менеджер соединений&lt;br&gt;&lt;/font&gt;" style="verticalAlign=middle;align=center;vsdxID=1;shape=stencil(tVLREoIgEPwaHnEIsvHd7D+YBGUicA5K+/sgbNLMXpre9m737mZhEStdyzuBKHEe7En0qvYtYntEqTKtAOUDQqxCrJQWRAP2YupUdzwqIzrba9wwpLlNnrEiTlFyGzuEPOpDkmtlJvJim+3oNzmHY+BguR1GfZ7k6wufPOaDchis515ZM+M0h0bgcApLzZsZ5XohukX7o5el9Z+crL/kX7wE8PpTqbROkZjy7xkIrZQfVt0B);spacingTop=-1;spacingBottom=-1;spacingLeft=-1;spacingRight=-1;labelBackgroundColor=none;rounded=0;html=1;whiteSpace=wrap;" vertex="1" parent="1nn4vVufA6z5W7UZVho0-197">
      <mxGeometry x="760" y="140" width="180" height="70" as="geometry" />
    </mxCell>
    <mxCell id="1nn4vVufA6z5W7UZVho0-411" value="" style="edgeStyle=orthogonalEdgeStyle;rounded=0;orthogonalLoop=1;jettySize=auto;html=1;" edge="1" parent="1nn4vVufA6z5W7UZVho0-197" source="1nn4vVufA6z5W7UZVho0-252" target="1nn4vVufA6z5W7UZVho0-405">
      <mxGeometry relative="1" as="geometry" />
    </mxCell>
    <mxCell id="1nn4vVufA6z5W7UZVho0-252" style="vsdxID=7;shape=stencil(UzV2Ls5ILEhVNTIoLinKz04tz0wpyVA1dlE1MsrMy0gtyiwBslSNXVWNndPyi1LTi/JL81Ig/IJEkEoQKze/DGRCBUSfAUiHkUElhGcK4bpBVOZk5iGpNEVVikeloQHZpsK0YlWLz1QgA+HFtMycHEgIIcujBwlQCBKcxq4A);spacingTop=-1;spacingBottom=-1;spacingLeft=-1;spacingRight=-1;labelBackgroundColor=none;rounded=0;html=1;whiteSpace=wrap;" vertex="1" parent="1nn4vVufA6z5W7UZVho0-197">
      <mxGeometry x="760" y="240" width="180" height="70" as="geometry" />
    </mxCell>
    <mxCell id="1nn4vVufA6z5W7UZVho0-253" value="&lt;font style=&quot;font-size: 11px ; font-family: &amp;#34;arial&amp;#34; ; color: #000000 ; direction: ltr ; letter-spacing: 0px ; line-height: 120% ; opacity: 1&quot;&gt;Сокет сервера активен&lt;br&gt;&lt;/font&gt;" style="text;vsdxID=7;fillColor=none;gradientColor=none;strokeColor=none;spacingTop=-1;spacingBottom=-1;spacingLeft=-1;spacingRight=-1;labelBackgroundColor=none;rounded=0;html=1;whiteSpace=wrap;verticalAlign=middle;align=center;;html=1;" vertex="1" parent="1nn4vVufA6z5W7UZVho0-252">
      <mxGeometry x="22" y="10" width="136.01" height="51.25" as="geometry" />
    </mxCell>
    <mxCell id="1nn4vVufA6z5W7UZVho0-482" value="12" style="text;html=1;align=center;verticalAlign=middle;resizable=0;points=[];autosize=1;" vertex="1" parent="1nn4vVufA6z5W7UZVho0-252">
      <mxGeometry x="10" width="30" height="20" as="geometry" />
    </mxCell>
    <mxCell id="1nn4vVufA6z5W7UZVho0-402" value="" style="edgeStyle=orthogonalEdgeStyle;rounded=0;orthogonalLoop=1;jettySize=auto;html=1;" edge="1" parent="1nn4vVufA6z5W7UZVho0-197" source="1nn4vVufA6z5W7UZVho0-255" target="1nn4vVufA6z5W7UZVho0-399">
      <mxGeometry relative="1" as="geometry" />
    </mxCell>
    <mxCell id="1nn4vVufA6z5W7UZVho0-255" value="&lt;font style=&quot;font-size: 11px ; font-family: &amp;#34;arial&amp;#34; ; color: #000000 ; direction: ltr ; letter-spacing: 0px ; line-height: 120% ; opacity: 1&quot;&gt;Ожидание завершения созданных потоков&lt;br&gt;&lt;/font&gt;" style="verticalAlign=middle;align=center;vsdxID=2;shape=stencil(nZBLDoAgDERP0z3SIyjew0SURgSD+Lu9kMZoXLhwN9O+tukAlrNpJg1SzDH4QW/URgNYgZTkjA4UkwJUgGXng+6DX1zLfmoymdXo17xh5zmRJ6Q42BWCfc2oJfdAr+Yv+AP9Cb7OJ3H/2JG1HNGz/84klThPVCc=);spacingTop=-1;spacingBottom=-1;spacingLeft=-1;spacingRight=-1;labelBackgroundColor=none;rounded=0;html=1;whiteSpace=wrap;" vertex="1" parent="1nn4vVufA6z5W7UZVho0-197">
      <mxGeometry x="540" y="300.00333333333333" width="180" height="70" as="geometry" />
    </mxCell>
    <mxCell id="1nn4vVufA6z5W7UZVho0-263" value="&lt;font style=&quot;font-size: 11px&quot;&gt;Запустить обработчик соединения в новом потоке с сохранением дескриптора&lt;/font&gt;" style="shape=process;whiteSpace=wrap;html=1;backgroundOutline=1;" vertex="1" parent="1nn4vVufA6z5W7UZVho0-197">
      <mxGeometry x="760" y="460" width="180" height="70" as="geometry" />
    </mxCell>
    <mxCell id="1nn4vVufA6z5W7UZVho0-264" value="&lt;font style=&quot;font-size: 11px ; font-family: &amp;#34;arial&amp;#34; ; color: #000000 ; direction: ltr ; letter-spacing: 0px ; line-height: 120% ; opacity: 1&quot;&gt;Конец&lt;br&gt;Обработчик соединения&lt;br&gt;&lt;/font&gt;" style="verticalAlign=middle;align=center;vsdxID=1;shape=stencil(tVLREoIgEPwaHnEIsvHd7D+YBGUicA5K+/sgbNLMXpre9m737mZhEStdyzuBKHEe7En0qvYtYntEqTKtAOUDQqxCrJQWRAP2YupUdzwqIzrba9wwpLlNnrEiTlFyGzuEPOpDkmtlJvJim+3oNzmHY+BguR1GfZ7k6wufPOaDchis515ZM+M0h0bgcApLzZsZ5XohukX7o5el9Z+crL/kX7wE8PpTqbROkZjy7xkIrZQfVt0B);spacingTop=-1;spacingBottom=-1;spacingLeft=-1;spacingRight=-1;labelBackgroundColor=none;rounded=0;html=1;whiteSpace=wrap;" vertex="1" parent="1nn4vVufA6z5W7UZVho0-197">
      <mxGeometry x="550" y="1120" width="180" height="70" as="geometry" />
    </mxCell>
    <mxCell id="1nn4vVufA6z5W7UZVho0-420" value="" style="edgeStyle=orthogonalEdgeStyle;rounded=0;orthogonalLoop=1;jettySize=auto;html=1;" edge="1" parent="1nn4vVufA6z5W7UZVho0-197" source="1nn4vVufA6z5W7UZVho0-271" target="1nn4vVufA6z5W7UZVho0-415">
      <mxGeometry relative="1" as="geometry" />
    </mxCell>
    <mxCell id="1nn4vVufA6z5W7UZVho0-271" value="&lt;font style=&quot;font-size: 11px ; font-family: &amp;#34;arial&amp;#34; ; color: #000000 ; direction: ltr ; letter-spacing: 0px ; line-height: 120% ; opacity: 1&quot;&gt;Начало&lt;br&gt;Обработчик соединения&lt;br&gt;&lt;/font&gt;" style="verticalAlign=middle;align=center;vsdxID=1;shape=stencil(tVLREoIgEPwaHnEIsvHd7D+YBGUicA5K+/sgbNLMXpre9m737mZhEStdyzuBKHEe7En0qvYtYntEqTKtAOUDQqxCrJQWRAP2YupUdzwqIzrba9wwpLlNnrEiTlFyGzuEPOpDkmtlJvJim+3oNzmHY+BguR1GfZ7k6wufPOaDchis515ZM+M0h0bgcApLzZsZ5XohukX7o5el9Z+crL/kX7wE8PpTqbROkZjy7xkIrZQfVt0B);spacingTop=-1;spacingBottom=-1;spacingLeft=-1;spacingRight=-1;labelBackgroundColor=none;rounded=0;html=1;whiteSpace=wrap;" vertex="1" parent="1nn4vVufA6z5W7UZVho0-197">
      <mxGeometry x="760" y="810" width="180" height="70" as="geometry" />
    </mxCell>
    <mxCell id="1nn4vVufA6z5W7UZVho0-292" value="&lt;font style=&quot;direction: ltr ; line-height: 120% ; opacity: 1&quot;&gt;&lt;font face=&quot;arial&quot;&gt;&lt;span style=&quot;font-size: 11px&quot;&gt;Очистить буфер для приема данных&lt;/span&gt;&lt;/font&gt;&lt;br&gt;&lt;/font&gt;" style="verticalAlign=middle;align=center;vsdxID=2;shape=stencil(nZBLDoAgDERP0z3SIyjew0SURgSD+Lu9kMZoXLhwN9O+tukAlrNpJg1SzDH4QW/URgNYgZTkjA4UkwJUgGXng+6DX1zLfmoymdXo17xh5zmRJ6Q42BWCfc2oJfdAr+Yv+AP9Cb7OJ3H/2JG1HNGz/84klThPVCc=);spacingTop=-1;spacingBottom=-1;spacingLeft=-1;spacingRight=-1;labelBackgroundColor=none;rounded=0;html=1;whiteSpace=wrap;" vertex="1" parent="1nn4vVufA6z5W7UZVho0-197">
      <mxGeometry x="760" y="1230.0033333333333" width="180" height="70" as="geometry" />
    </mxCell>
    <mxCell id="1nn4vVufA6z5W7UZVho0-445" value="" style="edgeStyle=orthogonalEdgeStyle;rounded=0;orthogonalLoop=1;jettySize=auto;html=1;" edge="1" parent="1nn4vVufA6z5W7UZVho0-197" source="1nn4vVufA6z5W7UZVho0-308" target="1nn4vVufA6z5W7UZVho0-437">
      <mxGeometry relative="1" as="geometry" />
    </mxCell>
    <mxCell id="1nn4vVufA6z5W7UZVho0-308" value="&lt;font style=&quot;direction: ltr ; line-height: 120% ; opacity: 1&quot;&gt;&lt;font face=&quot;arial&quot;&gt;&lt;span style=&quot;font-size: 11px&quot;&gt;Отправить данные на сервер&lt;/span&gt;&lt;/font&gt;&lt;br&gt;&lt;/font&gt;" style="verticalAlign=middle;align=center;vsdxID=2;shape=stencil(nZBLDoAgDERP0z3SIyjew0SURgSD+Lu9kMZoXLhwN9O+tukAlrNpJg1SzDH4QW/URgNYgZTkjA4UkwJUgGXng+6DX1zLfmoymdXo17xh5zmRJ6Q42BWCfc2oJfdAr+Yv+AP9Cb7OJ3H/2JG1HNGz/84klThPVCc=);spacingTop=-1;spacingBottom=-1;spacingLeft=-1;spacingRight=-1;labelBackgroundColor=none;rounded=0;html=1;whiteSpace=wrap;" vertex="1" parent="1nn4vVufA6z5W7UZVho0-197">
      <mxGeometry x="-380" y="270.00333333333333" width="180" height="70" as="geometry" />
    </mxCell>
    <mxCell id="1nn4vVufA6z5W7UZVho0-388" value="Connector" parent="0" />
    <mxCell id="1nn4vVufA6z5W7UZVho0-389" value="Блок-схема" parent="0" />
    <mxCell id="1nn4vVufA6z5W7UZVho0-390" value="Соединительная линия" parent="0" />
    <mxCell id="1nn4vVufA6z5W7UZVho0-391" style="vsdxID=253;edgeStyle=none;startArrow=none;endArrow=none;startSize=5;endSize=5;strokeWidth=3;strokeColor=#404040;spacingTop=0;spacingBottom=0;spacingLeft=0;spacingRight=0;verticalAlign=middle;html=1;labelBackgroundColor=#ffffff;rounded=0;" edge="1" parent="1nn4vVufA6z5W7UZVho0-390">
      <mxGeometry relative="1" as="geometry">
        <mxPoint as="offset" />
        <Array as="points">
          <mxPoint x="-839.71" y="1636.53" />
        </Array>
        <mxPoint x="-840" y="10.710000000000008" as="sourcePoint" />
        <mxPoint x="1460.29" y="1636.57" as="targetPoint" />
      </mxGeometry>
    </mxCell>
    <mxCell id="1nn4vVufA6z5W7UZVho0-392" style="vsdxID=254;edgeStyle=none;startArrow=none;endArrow=none;startSize=5;endSize=5;strokeWidth=3;strokeColor=#404040;spacingTop=0;spacingBottom=0;spacingLeft=0;spacingRight=0;verticalAlign=middle;html=1;labelBackgroundColor=#ffffff;rounded=0;" edge="1" parent="1nn4vVufA6z5W7UZVho0-390">
      <mxGeometry relative="1" as="geometry">
        <mxPoint as="offset" />
        <Array as="points">
          <mxPoint x="1462" y="10" />
        </Array>
        <mxPoint x="1462" y="1642" as="sourcePoint" />
        <mxPoint x="-838" y="10" as="targetPoint" />
      </mxGeometry>
    </mxCell>
  </root>
</mxGraphModel>
